<?xml version="1.0" encoding="UTF-8" standalone="no"?>
<!DOCTYPE svg PUBLIC "-//W3C//DTD SVG 1.1//EN" "http://www.w3.org/Graphics/SVG/1.1/DTD/svg11.dtd">
<svg width="100%" height="100%" viewBox="0 0 580 580" version="1.1" xmlns="http://www.w3.org/2000/svg" xmlns:xlink="http://www.w3.org/1999/xlink" xml:space="preserve" xmlns:serif="http://www.serif.com/" style="fill-rule:evenodd;clip-rule:evenodd;stroke-linecap:round;stroke-linejoin:round;">
    <g id="Vector.svg" transform="matrix(1,0,0,1,270.715,319.473)">
        <g transform="matrix(1,0,0,1,-213.5,-134)">
            <path d="M0.672,119.029C0.672,200.979 95.921,267.399 213.418,267.399C330.916,267.399 426.164,200.979 426.164,119.029C426.164,37.079 310.196,164.944 236.864,51.854C163.532,-61.235 0.672,37.088 0.672,119.029Z" style="fill:rgb(230,236,255);fill-rule:nonzero;"/>
        </g>
    </g>
    <g id="Vector-1.svg" transform="matrix(1,0,0,1,239.423,149.184)">
        <g transform="matrix(1,0,0,1,-21,-23.5)">
            <path d="M0.989,16.324L0.989,30.803C0.989,31.312 1.168,31.801 1.486,32.162C1.804,32.522 2.235,32.725 2.685,32.725L11.4,32.725C11.85,32.725 12.281,32.927 12.599,33.288C12.917,33.648 13.096,34.137 13.096,34.647L13.096,44.527C13.096,45.036 13.275,45.525 13.593,45.886C13.911,46.246 14.342,46.449 14.792,46.449L27.58,46.449C28.03,46.449 28.461,46.246 28.779,45.886C29.097,45.525 29.276,45.036 29.276,44.527L29.276,34.647C29.276,34.137 29.454,33.648 29.772,33.288C30.09,32.927 30.522,32.725 30.971,32.725L39.687,32.725C40.137,32.725 40.568,32.522 40.886,32.162C41.204,31.801 41.383,31.312 41.383,30.803L41.383,16.324C41.383,15.814 41.204,15.325 40.886,14.965C40.568,14.604 40.137,14.402 39.687,14.402L30.971,14.402C30.522,14.402 30.09,14.199 29.772,13.839C29.454,13.479 29.276,12.99 29.276,12.48L29.276,2.6C29.276,2.09 29.097,1.601 28.779,1.241C28.461,0.88 28.03,0.678 27.58,0.678L14.807,0.678C14.358,0.678 13.927,0.88 13.609,1.241C13.291,1.601 13.112,2.09 13.112,2.6L13.112,12.48C13.112,12.99 12.933,13.479 12.615,13.839C12.297,14.199 11.866,14.402 11.416,14.402L2.7,14.402C2.476,14.4 2.254,14.448 2.047,14.543C1.839,14.639 1.65,14.78 1.491,14.959C1.332,15.137 1.206,15.35 1.119,15.584C1.033,15.819 0.989,16.07 0.989,16.324Z" style="fill:rgb(230,236,255);fill-rule:nonzero;"/>
        </g>
    </g>
    <g>
        <path d="M365.549,312.812C365.549,312.812 356.041,313.604 353.711,322.225C351.382,330.845 346.168,380.106 345.621,389.131C345.355,394.258 344.504,399.338 343.086,404.272C343.086,404.272 316.542,414.795 309.411,414.795C302.28,414.795 309.411,455.688 309.411,455.688C309.411,455.688 357.744,453.62 370.422,440.15C383.1,426.68 365.549,312.812 365.549,312.812Z" style="fill:rgb(43,67,153);fill-rule:nonzero;"/>
        <path d="M344.212,580L533.766,580C531.729,574.842 528.219,566.062 524.345,556.625C524.289,556.507 524.242,556.38 524.194,556.253C517.618,540.382 509.979,522.697 506.311,517.404C504.995,515.51 503.252,513.181 501.279,510.645C494.386,501.779 484.719,490.377 480.956,485.972C479.957,484.799 479.371,484.125 479.371,484.125L439.888,482.62L396.174,480.956L368.442,485.71C368.442,485.71 367.182,487.469 365.471,490.464C361.841,496.65 359.107,503.32 357.349,510.273C355.709,517.23 351.961,537.3 348.72,555.08C346.906,564.993 345.258,574.184 344.212,580Z" style="fill:rgb(43,67,153);fill-rule:nonzero;"/>
        <path d="M437.178,472.185L437.218,472.335L438.058,475.584L439.888,482.62L442.13,491.256C442.13,491.256 444.159,493.863 447.106,498.388C456.615,512.919 475.774,547.204 466.693,576.83C466.369,577.871 466.104,578.929 465.901,580L533.766,580C531.729,574.841 528.219,566.062 524.345,556.625C524.289,556.506 524.242,556.38 524.194,556.253C517.618,540.382 509.979,522.697 506.311,517.404C504.995,515.51 503.252,513.181 501.279,510.645C494.386,501.779 484.719,490.377 480.956,485.971L480.956,474.039L451.298,472.779L437.978,472.216L437.178,472.185Z" style="fill:rgb(23,47,114);fill-rule:nonzero;"/>
        <path d="M364.48,448.946L364.48,487.557C364.485,488.613 364.841,489.636 365.493,490.467C366.144,491.298 367.053,491.888 368.077,492.145L377.68,494.522C407.142,501.761 437.916,501.786 467.39,494.593L477.35,492.161C478.375,491.905 479.286,491.316 479.939,490.485C480.592,489.654 480.949,488.629 480.955,487.573L480.955,448.938C480.949,448.224 480.783,447.52 480.468,446.88C480.153,446.239 479.697,445.677 479.136,445.236C478.574,444.796 477.92,444.487 477.223,444.334C476.525,444.18 475.802,444.186 475.108,444.35L467.39,446.236C437.917,453.431 407.142,453.407 377.68,446.165L370.327,444.358C369.632,444.194 368.909,444.188 368.212,444.342C367.515,444.495 366.861,444.804 366.299,445.244C365.737,445.685 365.282,446.247 364.967,446.887C364.652,447.528 364.486,448.232 364.48,448.946Z" style="fill:rgb(245,162,24);fill-rule:nonzero;"/>
        <path d="M364.48,448.946L364.48,470.759C376.856,475.513 406.522,482.938 446.884,473.826C462.477,470.308 473.364,466.227 480.955,462.297L480.955,448.938C480.949,448.224 480.783,447.52 480.468,446.88C480.153,446.239 479.697,445.677 479.136,445.236C478.574,444.796 477.92,444.487 477.223,444.334C476.525,444.18 475.802,444.186 475.108,444.35L467.39,446.236C437.917,453.431 407.142,453.407 377.68,446.165L370.327,444.358C369.632,444.194 368.909,444.188 368.212,444.342C367.515,444.495 366.861,444.804 366.299,445.244C365.737,445.685 365.282,446.247 364.967,446.887C364.652,447.528 364.486,448.232 364.48,448.946Z" style="fill:rgb(209,136,21);fill-rule:nonzero;"/>
        <path d="M372.403,466.694C382.675,470.421 393.418,472.694 404.319,473.445C414.678,474.203 425.086,473.916 435.387,472.589C464.316,468.984 488.879,448.47 491.256,435.792C493.633,423.115 488.086,409.645 485.781,402.862C483.475,396.08 484.917,372.405 485.709,359.727C486.09,353.642 484.83,340.988 482.801,328.675C480.599,315.355 477.501,302.424 474.616,298.716C469.07,291.585 454.808,290.793 445.299,290C439.597,289.526 433.957,288.483 428.462,286.886C395.841,290.911 397.758,295.547 393.797,297.924C389.835,300.301 364.48,312.186 363.157,312.812C361.833,313.438 358.933,317.732 359.726,321.694C360.518,325.656 362.103,372.405 362.222,380.376C362.34,388.347 353.387,422.323 351.802,442.924C350.218,463.525 359.726,461.94 372.403,466.694Z" style="fill:rgb(43,67,153);fill-rule:nonzero;"/>
        <path d="M404.327,473.445C414.686,474.203 425.094,473.916 435.395,472.589C464.316,468.984 488.879,448.47 491.256,435.793C493.633,423.115 488.086,409.645 485.781,402.863C483.475,396.08 484.917,372.405 485.709,359.727C486.09,353.642 484.83,340.988 482.801,328.675C471.447,334.792 462.731,341.503 461.939,347.842C459.562,366.858 459.562,437.377 442.13,455.601C435.046,463.002 419.865,468.968 404.327,473.445Z" style="fill:rgb(23,47,114);fill-rule:nonzero;"/>
        <path d="M390.405,301.228L396.467,311.655C396.467,311.655 418.819,320.727 428.493,320.814C435.3,320.878 442.415,321.282 446.036,321.528C446.347,321.547 446.65,321.63 446.928,321.77C447.206,321.91 447.453,322.106 447.653,322.344C447.853,322.583 448.002,322.86 448.092,323.158C448.182,323.456 448.21,323.769 448.175,324.079C447.383,331.511 438.564,343.484 452.034,364.877C465.504,386.27 480.559,385.478 480.559,385.478" style="fill:none;fill-rule:nonzero;stroke:rgb(23,39,90);stroke-width:2.18px;"/>
        <path d="M390.232,299.904C391.024,301.006 389.97,302.281 388.195,303.517L389.043,303.47L408.059,296.339L425.008,285.167C424.341,284.373 423.833,283.458 423.51,282.473C421.133,275.342 417.964,270.587 418.756,261.872C418.954,259.677 416.736,259.09 413.329,259.685C403.186,261.444 382.506,273.59 383.1,284.85C383.1,284.85 384.305,287.853 385.802,291.244C387.3,294.635 389.043,298.328 390.232,299.904Z" style="fill:rgb(244,173,146);fill-rule:nonzero;"/>
        <path d="M383.1,284.85C383.1,284.85 384.304,287.853 385.802,291.244C401.72,288.416 409.644,264.645 409.644,264.645L413.328,259.685C403.186,261.476 382.506,273.591 383.1,284.85Z" style="fill:rgb(235,111,80);fill-opacity:0.8;fill-rule:nonzero;"/>
        <path d="M345.861,215.519L345.861,215.82C345.932,216.47 346.019,217.111 346.122,217.753L346.193,218.268C346.788,222.959 347.865,232.602 347.485,238.639C347.485,239.004 347.437,239.353 347.406,239.685C347.152,242.726 347.089,245.78 347.215,248.829C347.311,251.563 347.524,254.558 347.905,257.545C348.252,260.248 348.76,262.928 349.426,265.571C350.686,270.69 352.596,275.199 355.4,277.718C363.324,284.849 377.586,288.019 391.056,284.057C399.606,281.545 415.991,272.734 426.268,254.661C431.688,245.153 435.412,233.006 435.372,217.864C435.372,217.072 435.428,216.335 435.428,215.558C435.432,209.674 434.276,203.846 432.026,198.408C429.776,192.971 426.477,188.03 422.316,183.868C418.155,179.707 413.215,176.406 407.778,174.156C402.341,171.905 396.513,170.748 390.628,170.751C384.55,170.768 378.532,171.957 372.903,174.253C356.121,181.067 343.721,197.057 345.861,215.519Z" style="fill:rgb(244,173,146);fill-rule:nonzero;"/>
        <path d="M370.422,175.505C365.137,179.72 368.045,177.882 383.892,177.09C399.739,176.297 414.001,179.467 417.17,188.183C420.34,196.899 417.17,198.483 409.247,204.03C401.323,209.576 402.116,217.5 406.87,221.461C411.624,225.423 412.416,232.554 410.832,235.724C410.36,236.572 410.112,237.526 410.112,238.497C410.112,239.467 410.36,240.422 410.832,241.27C410.832,241.27 431.607,232.816 426.37,254.082C426.322,254.28 426.275,254.471 426.235,254.661C431.655,245.153 435.379,233.006 435.339,217.864C435.339,217.072 435.395,216.335 435.395,215.558C435.399,209.676 434.244,203.851 431.996,198.416C429.748,192.98 426.451,188.041 422.294,183.879C418.137,179.718 413.2,176.417 407.767,174.165C402.333,171.912 396.509,170.752 390.627,170.751C384.486,170.751 375.968,173.255 370.422,175.505Z" style="fill:rgb(230,236,255);fill-rule:nonzero;"/>
        <rect x="419.549" y="509.877" width="15.055" height="70.123" style="fill:rgb(13,26,58);fill-rule:nonzero;stroke:black;stroke-width:0.75px;"/>
        <path d="M371.215,216.208C371.215,218.221 375.684,215.915 380.724,215.915C385.763,215.915 389.439,218.221 389.439,216.208C389.439,214.196 385.739,210.369 380.724,210.369C375.708,210.369 371.215,214.196 371.215,216.208Z" style="fill:rgb(23,39,90);fill-rule:nonzero;"/>
        <path d="M373.989,228.331C373.989,229.615 376.723,228.418 380.574,228.418C384.424,228.418 387.316,229.702 387.316,228.418C387.316,227.134 384.147,225.027 380.328,225.027C376.509,225.027 373.989,227.047 373.989,228.331Z" style="fill:rgb(23,39,90);fill-rule:nonzero;"/>
        <path d="M357.998,228.418C357.998,229.702 356.413,228.418 354.036,228.418C351.659,228.418 349.409,229.702 349.409,228.418C349.409,227.134 350.994,225.027 353.371,225.027C355.748,225.027 357.998,227.134 357.998,228.418Z" style="fill:rgb(23,39,90);fill-rule:nonzero;"/>
        <path d="M359.33,216.708C359.33,218.72 358.031,216.708 352.991,216.708C347.952,216.708 347.445,218.72 347.445,216.708C347.445,215.915 348.744,211.954 353.784,211.954C358.823,211.954 359.33,214.727 359.33,216.708Z" style="fill:rgb(23,39,90);fill-rule:nonzero;"/>
        <path d="M417.038,505.336C414.932,496.391 424.102,486.578 437.519,483.419C450.937,480.259 463.521,484.949 465.628,493.894C467.734,502.839 458.564,512.652 445.147,515.811C431.729,518.971 419.145,514.281 417.038,505.336Z" style="fill-rule:nonzero;stroke:black;stroke-width:0.7px;"/>
        <path d="M357.294,243.505C357.399,243.836 357.551,244.151 357.745,244.439C359.33,246.817 362.5,247.609 362.5,247.609C364.718,246.191 365.392,243.853 365.526,241.476C365.661,239.099 365.273,236.912 365.273,235.327C365.273,232.158 363.688,224.235 363.688,224.235L362.5,223.838C362.5,223.838 363.292,230.177 360.122,234.931C357.888,238.291 356.557,241.23 357.294,243.505Z" style="fill:rgb(248,58,49);fill-opacity:0.35;fill-rule:nonzero;"/>
        <path d="M383.873,250.113C382.308,247.966 384.337,243.823 388.404,240.86C392.472,237.896 397.037,237.234 398.601,239.381C400.165,241.527 398.136,245.67 394.069,248.634C390.002,251.597 385.437,252.26 383.873,250.113Z" style="fill:rgb(248,58,49);fill-opacity:0.15;fill-rule:nonzero;"/>
        <path d="M347.255,248.798C349.292,249.194 351.011,248.853 351.851,247.696C353.388,245.588 351.455,241.555 347.525,238.608C347.525,238.972 347.477,239.321 347.446,239.654C347.192,242.695 347.129,245.749 347.255,248.798Z" style="fill:rgb(248,58,49);fill-opacity:0.15;fill-rule:nonzero;"/>
        <path d="M347.944,257.577C348.28,260.269 348.774,262.939 349.426,265.572C356.557,264.906 356.557,259.891 360.518,258.306C364.48,256.721 370.819,259.891 375.573,264.645C380.327,269.399 389.178,265.342 389.178,265.342L381.912,259.891C380.456,258.78 378.923,257.774 377.324,256.88C375.914,256.246 370.819,253.552 368.006,252.213C365.193,250.874 358.934,253.552 351.589,255.715C350.266,256.097 349.028,256.729 347.944,257.577Z" style="fill:rgb(235,111,80);fill-opacity:0.35;fill-rule:nonzero;"/>
        <path d="M383.496,255.136C383.496,255.136 377.95,250.137 370.422,249.471C362.895,248.805 358.933,248.005 351.01,251.175C343.086,254.344 339.917,264.644 339.917,264.644C339.917,264.644 343.879,266.229 350.217,263.06C356.556,259.89 357.349,255.929 362.895,255.929C368.441,255.929 377.157,263.852 381.499,265.041C385.841,266.229 390.889,265.041 390.889,265.041C390.889,265.041 385.873,256.721 383.496,255.136Z" style="fill:rgb(230,236,255);fill-rule:nonzero;"/>
        <path d="M416.775,496.011L416.775,502.349C416.775,502.571 416.812,502.791 416.886,502.999C416.996,503.297 417.181,503.562 417.422,503.768C417.663,503.974 417.953,504.116 418.265,504.178C418.576,504.241 418.898,504.223 419.2,504.126C419.503,504.029 419.775,503.857 419.992,503.625C420.482,503.073 420.869,502.437 421.133,501.747C421.276,501.399 421.442,501.026 421.632,500.622C423.399,496.795 427.218,490.726 429.841,489.41C431.109,488.776 432.519,490.203 434.785,491.867C435.142,492.12 435.522,492.39 435.926,492.659C437.507,493.7 439.243,494.483 441.069,494.981C441.788,495.167 442.518,495.308 443.255,495.401C445.315,495.649 447.401,495.59 449.444,495.226C454.825,494.28 460.048,492.584 464.958,490.187C470.948,487.295 475.354,483.888 476.003,481.55C476.05,481.396 476.079,481.236 476.09,481.075C476.312,477.113 448.746,469.095 446.195,471.63C442.795,471.994 439.426,472.608 436.116,473.468C432.908,474.251 429.822,475.467 426.941,477.081C419.683,481.447 416.775,496.011 416.775,496.011Z" style="fill:rgb(244,173,146);fill-rule:nonzero;"/>
        <path d="M443.637,489.435C443.637,489.435 434.128,490.465 431.997,494.308C429.866,498.15 426.942,510.495 426.942,511.216C426.942,511.937 427.663,514.124 431.3,511.945C434.937,509.766 438.558,498.879 438.558,498.879L446.434,493.071L443.637,489.435Z" style="fill:rgb(244,173,146);fill-rule:nonzero;"/>
        <path d="M437.106,511.216C440.006,511.216 442.185,506.858 444.364,503.229C446.543,499.6 451.258,499.267 451.258,499.267C457.431,498.196 463.454,496.387 469.197,493.879L469.775,493.618C478.847,489.411 477.397,481.123 477.397,481.123L476.003,481.598L459.482,487.247L446.702,491.621C446.345,491.764 445.997,491.914 445.648,492.081C443.994,492.851 442.454,493.842 441.068,495.028C439.198,496.613 437.899,498.42 437.463,499.996C437.209,501.034 436.726,502.746 436.33,504.536C435.625,507.746 435.229,511.216 437.106,511.216Z" style="fill:rgb(244,173,146);fill-rule:nonzero;"/>
        <path d="M433.471,485.084C432.75,485.084 422.584,489.434 421.855,497.421C421.563,500.452 421.473,503.499 421.585,506.541C421.608,507.009 421.756,507.462 422.015,507.853C422.274,508.243 422.633,508.556 423.055,508.759C423.477,508.962 423.947,509.048 424.413,509.006C424.88,508.964 425.326,508.797 425.706,508.522C426.958,507.619 428.202,506.01 428.875,503.158C430.571,495.971 438.771,490.393 438.771,490.393L433.471,485.084Z" style="fill:rgb(244,173,146);fill-rule:nonzero;"/>
        <path d="M448.469,484.126C452.254,484.693 455.954,485.731 459.482,487.216C461.4,488.031 463.234,489.031 464.957,490.203C466.5,491.258 467.922,492.481 469.197,493.848L469.775,493.586C478.847,489.379 477.397,481.091 477.397,481.091L476.003,481.566C476.05,481.412 476.079,481.252 476.09,481.091C476.312,477.129 448.746,469.111 446.195,471.646C442.794,472.01 439.426,472.624 436.116,473.484C436.116,473.484 428.66,480.956 448.469,484.126Z" style="fill:rgb(235,111,80);fill-opacity:0.8;fill-rule:nonzero;"/>
        <path d="M417.98,250.263C417.98,250.263 424.129,252.347 427.187,248.988C430.246,245.628 427.187,239.606 425.92,241.856C424.652,244.107 417.996,250.295 417.996,250.295" style="fill:rgb(235,111,80);fill-opacity:0.8;fill-rule:nonzero;"/>
        <path d="M410.833,241.27C410.833,241.27 416.379,229.385 421.926,228.593C427.472,227.8 432.226,233.347 429.849,239.686C427.472,246.024 424.303,251.571 417.171,249.986" style="fill:rgb(244,173,146);fill-rule:nonzero;"/>
        <path d="M416.869,246.512C414.661,244.988 414.892,240.824 417.385,237.212C419.878,233.599 423.689,231.906 425.897,233.43C428.105,234.953 427.874,239.117 425.381,242.729C422.888,246.342 419.077,248.035 416.869,246.512Z" style="fill:rgb(248,58,49);fill-opacity:0.15;fill-rule:nonzero;"/>
        <path d="M426.656,281.03C426.123,280.757 425.529,280.626 424.931,280.649C424.333,280.673 423.75,280.85 423.241,281.165C419.509,283.383 401.134,286.711 396.967,291.584C391.983,297.4 395.612,304.737 396.444,306.401C396.674,306.875 397.027,307.278 397.466,307.569C397.905,307.86 398.414,308.029 398.94,308.057C398.94,308.057 431.283,289.627 431.038,289.627C430.792,289.627 430.372,283.003 426.656,281.03Z" style="fill:rgb(43,67,153);fill-rule:nonzero;stroke:rgb(23,39,90);stroke-width:2.18px;"/>
        <path d="M464.554,292.773C449.333,330.013 463.128,357.746 471.843,360.123C480.559,362.5 493.237,387.063 497.199,406.871C501.16,426.68 468.674,454.412 468.674,454.412C468.674,454.412 473.428,457.582 478.975,467.09C484.521,476.598 500.368,477.39 500.368,477.39C500.368,477.39 527.237,462.391 535.628,437.028C555.833,375.97 490.86,314.166 482.936,303.866C475.013,293.565 464.554,292.773 464.554,292.773Z" style="fill:rgb(43,67,153);fill-rule:nonzero;"/>
        <path d="M469.468,453.62C469.468,453.62 460.752,459.167 454.413,462.336C448.074,465.505 422.719,475.806 447.678,480.956C472.637,486.106 469.468,489.276 474.222,496.407C478.976,503.538 486.107,505.123 486.899,499.576C487.692,494.03 500.369,477.391 500.369,477.391C500.369,477.391 484.522,473.429 479.768,465.505C477.107,460.935 473.613,456.904 469.468,453.62Z" style="fill:rgb(43,67,153);fill-rule:nonzero;"/>
        <path d="M312.915,414.344C327.113,435.681 316.147,455.601 314.563,455.363C312.978,455.126 292.377,465.902 286.038,467.486C279.699,469.071 277.322,465.109 277.235,444.215C277.148,423.321 289.207,409.645 290,410.144C290.792,410.643 312.915,414.344 312.915,414.344Z" style="fill:rgb(43,67,153);fill-rule:nonzero;"/>
        <path d="M282.559,468.049C288.106,469.023 294.825,456.908 297.558,441.006L297.653,440.435C299.888,426.91 298.446,415.08 294.484,411.499C293.921,410.962 293.218,410.594 292.456,410.437C290.023,410.009 287.353,412.109 284.897,415.984C284.342,416.855 283.787,417.83 283.256,418.876C282.868,419.668 282.464,420.46 282.1,421.356C280.324,425.553 278.973,429.916 278.067,434.382C277.853,435.404 277.647,436.442 277.472,437.504C274.731,453.39 277.013,467.074 282.559,468.049Z" style="fill:rgb(13,26,58);fill-rule:nonzero;"/>
        <path d="M255.683,414.558C255.683,414.811 255.683,415.073 255.723,415.35C255.78,416.377 255.888,417.4 256.048,418.416C256.213,419.662 256.518,420.885 256.959,422.061C257.217,422.774 257.58,423.444 258.036,424.05C261.039,427.901 271.086,432.211 278.083,434.351C280.13,435.082 282.259,435.563 284.422,435.785L289.025,435.785L289.992,436.292L297.836,440.428C300.094,426.902 298.676,415.073 294.667,411.491C294.667,411.317 294.595,411.143 294.556,410.96L293.977,410.746L286.83,408.06C286.83,408.06 285.341,407.49 283.019,406.642C281.934,406.254 280.642,405.802 279.287,405.327L278.867,405.184C273.966,403.443 268.975,401.967 263.916,400.763C259.74,399.86 256.618,399.693 256.452,401.135L256.38,401.642L256.38,401.872C256.309,402.443 256.198,403.322 256.087,404.416C255.976,405.509 255.881,406.65 255.802,407.965C255.802,408.235 255.802,408.504 255.762,408.758C255.636,410.612 255.596,412.601 255.683,414.558Z" style="fill:rgb(244,173,146);fill-rule:nonzero;"/>
        <path d="M277.909,399.416C278.139,401.214 278.479,403.195 278.868,405.184C280.056,411.285 281.681,417.545 281.681,419.549C281.78,420.158 281.939,420.755 282.156,421.332C284.311,426.237 293.312,434.24 295.285,416.261C295.231,414.663 295.037,413.072 294.707,411.507C294.707,411.333 294.635,411.158 294.596,410.976C294.025,408.599 293.011,405.969 291.189,404.503C287.227,401.333 284.058,397.372 283.265,394.995C282.552,392.855 281.839,389.448 279.391,391.08C279.075,391.3 278.78,391.55 278.511,391.825C277.465,392.863 277.457,395.803 277.909,399.416Z" style="fill:rgb(244,173,146);fill-rule:nonzero;"/>
        <path d="M294.705,411.499C294.705,411.324 294.634,411.15 294.594,410.968C294.024,408.591 293.009,405.96 291.187,404.494C287.225,401.325 284.056,397.363 283.264,394.986C282.55,392.847 281.837,389.44 279.389,391.072" style="fill:rgb(244,173,146);fill-rule:nonzero;"/>
        <path d="M294.705,411.499C294.705,411.324 294.634,411.15 294.594,410.968C294.024,408.591 293.009,405.96 291.187,404.494C287.225,401.325 284.056,397.363 283.264,394.986C282.55,392.847 281.837,389.44 279.389,391.072" style="fill:none;fill-rule:nonzero;stroke:rgb(235,111,80);stroke-width:0.73px;"/>
        <path d="M283.257,418.852C283.257,418.852 286.426,423.511 289.596,423.511L283.257,418.852Z" style="fill:rgb(244,173,146);fill-rule:nonzero;"/>
        <path d="M283.257,418.852C283.257,418.852 286.426,423.511 289.596,423.511" style="fill:none;fill-rule:nonzero;stroke:rgb(235,111,80);stroke-width:0.73px;"/>
        <path d="M246.262,371.184L248.536,372.183C251.789,386.165 255.051,400.163 258.321,414.177C258.579,415.391 259.162,416.512 260.008,417.421C260.854,418.329 261.93,418.991 263.123,419.335C263.353,419.449 263.568,419.59 263.765,419.755L278.819,419.755L280.848,421.34L283.843,418.361C284.897,417.418 285.221,416.118 284.825,414.399C281.529,400.237 278.228,386.08 274.921,371.929C274.68,370.906 274.204,369.954 273.532,369.147C272.859,368.339 272.008,367.7 271.046,367.278L270.983,367.278C270.454,367.023 269.874,366.89 269.287,366.89L252.172,366.89C251.667,366.882 251.165,366.974 250.696,367.162C250.226,367.349 249.799,367.629 249.439,367.983L249.241,368.181L246.262,371.184Z" style="fill:rgb(70,92,135);fill-rule:nonzero;"/>
        <path d="M279.412,422.124C279.659,422.025 279.9,421.911 280.133,421.784C281.908,420.801 282.55,419.304 282.051,417.172C278.755,403.01 275.453,388.854 272.147,374.702C271.906,373.68 271.43,372.727 270.758,371.92C270.085,371.113 269.234,370.473 268.272,370.051L267.773,369.798C267.551,369.714 267.319,369.658 267.083,369.631L248.067,369.631C245.856,371.073 245.183,372.428 245.69,374.552C248.976,388.671 252.269,402.794 255.571,416.919C255.829,418.133 256.412,419.254 257.258,420.162C258.103,421.071 259.18,421.732 260.372,422.077C260.578,422.156 278.113,422.323 279.412,422.124Z" style="fill:rgb(23,39,90);fill-rule:nonzero;"/>
        <path d="M262.267,398.552C259.642,398.552 257.513,396.424 257.513,393.798C257.513,391.172 259.642,389.044 262.267,389.044C264.893,389.044 267.021,391.172 267.021,393.798C267.021,396.424 264.893,398.552 262.267,398.552Z" style="fill:rgb(230,236,255);fill-opacity:0.18;fill-rule:nonzero;"/>
        <path d="M250.778,399.828L255.857,401.721L259.739,403.147C260.51,403.422 261.357,403.382 262.098,403.036C262.84,402.691 263.415,402.068 263.701,401.301L263.947,400.628C264.223,399.857 264.184,399.009 263.838,398.267C263.493,397.525 262.868,396.95 262.1,396.666L253.147,393.378C252.378,393.099 251.529,393.136 250.787,393.48C250.045,393.825 249.469,394.449 249.185,395.216L248.932,395.89C248.665,396.657 248.708,397.499 249.053,398.234C249.398,398.97 250.017,399.542 250.778,399.828Z" style="fill:rgb(244,173,146);fill-rule:nonzero;"/>
        <path d="M259.739,403.124C260.51,403.398 261.357,403.358 262.098,403.012C262.84,402.667 263.415,402.044 263.701,401.277L263.947,400.604C264.223,399.834 264.184,398.985 263.838,398.243C263.493,397.502 262.868,396.926 262.1,396.642L253.147,393.354C252.502,393.117 251.797,393.1 251.142,393.306" style="fill:rgb(244,173,146);fill-rule:nonzero;"/>
        <path d="M259.739,403.124C260.51,403.398 261.357,403.358 262.098,403.012C262.84,402.667 263.415,402.044 263.701,401.277L263.947,400.604C264.223,399.834 264.184,398.985 263.838,398.243C263.493,397.502 262.868,396.926 262.1,396.642L253.147,393.354C252.502,393.117 251.797,393.1 251.142,393.306" style="fill:none;fill-rule:nonzero;stroke:rgb(235,111,80);stroke-width:0.73px;"/>
        <path d="M253.171,400.463L262.126,403.754C263.736,404.346 264.561,406.131 263.97,407.741L263.724,408.41C263.132,410.02 261.347,410.846 259.737,410.254L250.782,406.963C249.172,406.371 248.347,404.587 248.939,402.976L249.185,402.307C249.776,400.697 251.561,399.871 253.171,400.463Z" style="fill:rgb(244,173,146);fill-rule:nonzero;"/>
        <path d="M263.241,409.265C263.446,409.007 263.61,408.718 263.724,408.409L263.97,407.735C264.246,406.965 264.207,406.117 263.862,405.375C263.516,404.633 262.891,404.057 262.124,403.774L253.17,400.485C252.526,400.248 251.821,400.232 251.166,400.438" style="fill:rgb(244,173,146);fill-rule:nonzero;"/>
        <path d="M263.241,409.265C263.446,409.007 263.61,408.718 263.724,408.409L263.97,407.735C264.246,406.965 264.207,406.117 263.862,405.375C263.516,404.633 262.891,404.057 262.124,403.774L253.17,400.485C252.526,400.248 251.821,400.232 251.166,400.438" style="fill:none;fill-rule:nonzero;stroke:rgb(235,111,80);stroke-width:0.73px;"/>
        <path d="M254.757,407.592L263.712,410.883C265.322,411.474 266.147,413.259 265.555,414.869L265.309,415.539C264.718,417.149 262.933,417.974 261.323,417.383L252.368,414.092C250.758,413.5 249.933,411.715 250.524,410.105L250.77,409.436C251.362,407.825 253.147,407 254.757,407.592Z" style="fill:rgb(244,173,146);fill-rule:nonzero;"/>
        <path d="M257.128,414.724L266.083,418.015C267.693,418.607 268.518,420.392 267.927,422.002L267.681,422.672C267.089,424.282 265.304,425.107 263.694,424.515L254.739,421.225C253.129,420.633 252.304,418.848 252.896,417.238L253.142,416.568C253.733,414.958 255.518,414.133 257.128,414.724Z" style="fill:rgb(244,173,146);fill-rule:nonzero;"/>
        <path d="M256.958,422.038C257.216,422.75 257.579,423.421 258.035,424.026C261.038,427.877 271.085,432.188 278.082,434.327C280.129,435.058 282.257,435.54 284.42,435.761L289.024,435.761L297.494,440.119" style="fill:none;fill-rule:nonzero;stroke:rgb(235,111,80);stroke-width:0.73px;stroke-linejoin:miter;stroke-miterlimit:10;"/>
        <path d="M264.407,416.831C264.817,416.488 265.128,416.042 265.31,415.539L265.556,414.866C265.832,414.096 265.793,413.247 265.448,412.505C265.102,411.764 264.477,411.188 263.71,410.904L254.756,407.616C254.047,407.346 253.263,407.346 252.553,407.616" style="fill:rgb(244,173,146);fill-rule:nonzero;"/>
        <path d="M264.407,416.831C264.817,416.488 265.128,416.042 265.31,415.539L265.556,414.866C265.832,414.096 265.793,413.247 265.448,412.505C265.102,411.764 264.477,411.188 263.71,410.904L254.756,407.616C254.047,407.346 253.263,407.346 252.553,407.616" style="fill:none;fill-rule:nonzero;stroke:rgb(235,111,80);stroke-width:0.73px;"/>
        <path d="M290,436.299L297.844,440.435C300.102,426.91 298.684,415.08 294.674,411.499C294.674,411.324 294.603,411.15 294.564,410.968L293.985,410.754L293.827,411.11C293.827,411.11 297.923,424.699 295.546,431.038C294.587,433.589 292.377,435.238 290,436.299Z" style="fill:rgb(235,111,80);fill-rule:nonzero;"/>
        <path d="M385.081,290C385.081,290 393.797,294.754 394.589,298.716C395.12,301.378 396.174,305.055 396.76,307.162C396.813,307.345 396.819,307.538 396.777,307.724C396.736,307.909 396.648,308.081 396.523,308.224C396.397,308.367 396.238,308.476 396.059,308.541C395.881,308.606 395.688,308.625 395.5,308.596C392.387,308.113 388.433,305.427 386.666,304.262C384.289,302.678 385.081,290 385.081,290Z" style="fill:rgb(43,67,153);fill-rule:nonzero;stroke:rgb(23,39,90);stroke-width:2.18px;"/>
        <path d="M461.543,299.112C456.157,311.59 454.773,325.432 457.582,338.73C461.543,356.954 479.561,362.603 484.521,374.386" style="fill:rgb(43,67,153);fill-rule:nonzero;"/>
        <path d="M461.543,299.112C456.157,311.59 454.773,325.432 457.582,338.73C461.543,356.954 479.561,362.603 484.521,374.386" style="fill:none;fill-rule:nonzero;stroke:rgb(23,39,90);stroke-width:2.18px;"/>
        <path d="M443.715,315.355C443.715,315.355 438.961,322.225 441.338,327.502" style="fill:none;fill-rule:nonzero;stroke:rgb(23,39,90);stroke-width:2.18px;"/>
        <path d="M438.168,315.355C438.168,315.355 433.414,322.225 435.791,327.502" style="fill:none;fill-rule:nonzero;stroke:rgb(23,39,90);stroke-width:2.18px;"/>
        <path d="M401.721,301.228C401.721,301.228 394.17,302.939 390.43,301.228L401.721,301.228Z" style="fill:rgb(43,67,153);fill-rule:nonzero;"/>
        <path d="M401.721,301.228C401.721,301.228 394.17,302.939 390.43,301.228" style="fill:none;fill-rule:nonzero;stroke:rgb(23,39,90);stroke-width:2.18px;"/>
        <path d="M351.407,444.112C349.822,423.511 362.223,380.375 362.223,380.375C362.223,380.375 358.934,328.825 359.727,321.694" style="fill:rgb(43,67,153);fill-rule:nonzero;"/>
        <path d="M351.407,444.112C349.822,423.511 362.223,380.375 362.223,380.375C362.223,380.375 358.934,328.825 359.727,321.694" style="fill:none;fill-rule:nonzero;stroke:rgb(23,39,90);stroke-width:2.18px;"/>
        <path d="M311.742,415.136C311.742,415.136 326.709,430.69 318.651,452.257L311.742,415.136Z" style="fill:rgb(43,67,153);fill-rule:nonzero;"/>
        <path d="M311.742,415.136C311.742,415.136 326.709,430.69 318.651,452.257" style="fill:none;fill-rule:nonzero;stroke:rgb(23,39,90);stroke-width:2.18px;"/>
        <path d="M499.234,477.082C495.526,476.004 483.752,472.145 479.766,465.505C477.105,460.935 473.611,456.904 469.466,453.62" style="fill:rgb(43,67,153);fill-rule:nonzero;"/>
        <path d="M499.234,477.082C495.526,476.004 483.752,472.145 479.766,465.505C477.105,460.935 473.611,456.904 469.466,453.62" style="fill:none;fill-rule:nonzero;stroke:rgb(23,39,90);stroke-width:2.18px;"/>
        <path d="M469.466,453.62C469.466,453.62 460.75,459.167 454.412,462.336C450.236,464.42 437.828,469.602 436.98,474.364C436.528,476.836 439.183,479.197 447.708,480.956C472.667,486.106 469.498,489.276 474.252,496.407C479.006,503.538 486.93,505.915 489.307,494.03" style="fill:rgb(43,67,153);fill-rule:nonzero;"/>
        <path d="M469.466,453.62C469.466,453.62 460.75,459.167 454.412,462.336C450.236,464.42 437.828,469.602 436.98,474.364C436.528,476.836 439.183,479.197 447.708,480.956C472.667,486.106 469.498,489.276 474.252,496.407C479.006,503.538 486.93,505.915 489.307,494.03" style="fill:none;fill-rule:nonzero;stroke:rgb(23,39,90);stroke-width:2.18px;"/>
        <path d="M484.521,374.385C484.521,374.385 519.384,414.795 471.051,452.257" style="fill:none;fill-rule:nonzero;stroke:rgb(23,39,90);stroke-width:2.18px;"/>
        <path d="M362.5,247.609C362.5,247.609 359.33,246.817 357.746,244.439C356.161,242.062 357.564,238.774 360.123,234.931C363.292,230.177 362.5,223.838 362.5,223.838" style="fill:none;fill-rule:nonzero;stroke:rgb(23,39,90);stroke-width:0.73px;"/>
        <path d="M390.098,203.008C390.098,203.008 369.592,200.005 351.589,203.008L390.098,203.008Z" style="fill:rgb(235,111,80);fill-opacity:0.3;fill-rule:nonzero;"/>
        <path d="M392.475,195.876C392.475,195.876 371.969,192.873 353.966,195.876L392.475,195.876Z" style="fill:rgb(235,111,80);fill-opacity:0.3;fill-rule:nonzero;"/>
        <path d="M260.683,401.721C259.808,401.721 259.098,400.834 259.098,399.74C259.098,398.646 259.808,397.759 260.683,397.759C261.558,397.759 262.268,398.646 262.268,399.74C262.268,400.834 261.558,401.721 260.683,401.721Z" style="fill:rgb(237,255,255);fill-opacity:0.46;fill-rule:nonzero;"/>
        <path d="M260.683,408.852C259.808,408.852 259.098,407.965 259.098,406.871C259.098,405.777 259.808,404.891 260.683,404.891C261.558,404.891 262.268,405.777 262.268,406.871C262.268,407.965 261.558,408.852 260.683,408.852Z" style="fill:rgb(237,255,255);fill-opacity:0.46;fill-rule:nonzero;"/>
        <path d="M263.06,415.984C262.185,415.984 261.475,415.097 261.475,414.003C261.475,412.909 262.185,412.022 263.06,412.022C263.935,412.022 264.645,412.909 264.645,414.003C264.645,415.097 263.935,415.984 263.06,415.984Z" style="fill:rgb(237,255,255);fill-opacity:0.46;fill-rule:nonzero;"/>
        <path d="M265.437,423.114C264.562,423.114 263.852,422.227 263.852,421.133C263.852,420.039 264.562,419.152 265.437,419.152C266.312,419.152 267.021,420.039 267.021,421.133C267.021,422.227 266.312,423.114 265.437,423.114Z" style="fill:rgb(237,255,255);fill-opacity:0.46;fill-rule:nonzero;"/>
        <path d="M258.797,422.711L263.702,424.517C264.473,424.791 265.32,424.751 266.061,424.406C266.803,424.061 267.378,423.437 267.664,422.671L267.909,421.998C268.186,421.227 268.147,420.379 267.801,419.637C267.455,418.895 266.831,418.32 266.063,418.036L257.11,414.748" style="fill:none;fill-rule:nonzero;stroke:rgb(235,111,80);stroke-width:0.73px;"/>
        <path d="M436.188,504.33C436.188,504.33 437.306,498.958 438.93,497.088C441.138,494.901 443.676,493.072 446.449,491.668" style="fill:rgb(244,173,146);fill-rule:nonzero;"/>
        <path d="M436.188,504.33C436.188,504.33 437.306,498.958 438.93,497.088C441.138,494.901 443.676,493.072 446.449,491.668" style="fill:none;fill-rule:nonzero;stroke:rgb(235,111,80);stroke-width:0.73px;"/>
        <path d="M428.836,503.625C428.836,503.625 431.434,493.237 433.019,491.653C434.604,490.068 442.527,486.898 442.527,486.898" style="fill:rgb(244,173,146);fill-rule:nonzero;"/>
        <path d="M428.836,503.625C428.836,503.625 431.434,493.237 433.019,491.653C434.604,490.068 442.527,486.898 442.527,486.898" style="fill:none;fill-rule:nonzero;stroke:rgb(235,111,80);stroke-width:0.73px;"/>
        <path d="M421.925,500.368C421.925,500.368 425.886,487.691 427.471,486.106C429.056,484.521 435.395,482.937 435.395,482.937" style="fill:rgb(244,173,146);fill-rule:nonzero;"/>
        <path d="M421.925,500.368C421.925,500.368 425.886,487.691 427.471,486.106C429.056,484.521 435.395,482.937 435.395,482.937" style="fill:none;fill-rule:nonzero;stroke:rgb(235,111,80);stroke-width:0.73px;"/>
        <path d="M437.773,509.877C436.898,509.877 436.188,508.812 436.188,507.5C436.188,506.187 436.898,505.123 437.773,505.123C438.648,505.123 439.357,506.187 439.357,507.5C439.357,508.812 438.648,509.877 437.773,509.877Z" style="fill:rgb(237,255,255);fill-opacity:0.46;fill-rule:nonzero;"/>
        <path d="M429.003,511.805C428.142,511.647 427.638,510.471 427.876,509.18C428.114,507.889 429.005,506.971 429.865,507.13C430.726,507.289 431.231,508.464 430.993,509.755C430.755,511.046 429.864,511.964 429.003,511.805Z" style="fill:rgb(237,255,255);fill-opacity:0.46;fill-rule:nonzero;"/>
        <path d="M423.458,508.641C422.598,508.483 422.093,507.307 422.331,506.016C422.569,504.725 423.46,503.807 424.32,503.966C425.181,504.125 425.686,505.3 425.448,506.591C425.21,507.882 424.319,508.8 423.458,508.641Z" style="fill:rgb(237,255,255);fill-opacity:0.46;fill-rule:nonzero;"/>
        <path d="M416.776,498.903L416.776,502.35C416.775,502.571 416.813,502.791 416.887,502.999C416.969,503.032 417.053,503.055 417.14,503.071C417.996,503.229 418.891,502.278 419.129,501.019C419.367,499.759 418.86,498.554 417.996,498.396C417.766,498.372 417.534,498.405 417.321,498.494C417.108,498.582 416.92,498.723 416.776,498.903Z" style="fill:rgb(237,255,255);fill-opacity:0.46;fill-rule:nonzero;"/>
        <path d="M415.459,244.234C415.459,244.234 415.055,234.354 424.23,232.864" style="fill:none;fill-rule:nonzero;stroke:rgb(23,39,90);stroke-width:0.73px;"/>
        <path d="M419.153,235.107C419.153,235.107 424.271,234.624 424.699,237.952" style="fill:none;fill-rule:nonzero;stroke:rgb(23,39,90);stroke-width:0.73px;"/>
        <path d="M264.721,376.496C263.957,375.671 263.969,374.416 264.749,373.693C265.53,372.971 266.782,373.054 267.546,373.879C268.31,374.704 268.297,375.958 267.517,376.681C266.737,377.404 265.485,377.321 264.721,376.496Z" style="fill:rgb(10,20,40);fill-rule:nonzero;"/>
        <path d="M265.695,381.207C264.931,380.382 264.944,379.127 265.724,378.405C266.504,377.682 267.756,377.765 268.52,378.59C269.285,379.415 269.272,380.67 268.492,381.392C267.712,382.115 266.46,382.032 265.695,381.207Z" style="fill:rgb(10,20,40);fill-rule:nonzero;"/>
        <path d="M92.928,470.504L92.928,471.812C92.928,471.962 92.928,472.192 92.976,472.382C92.972,472.395 92.972,472.409 92.976,472.422C93.022,472.933 93.098,473.441 93.205,473.943L93.205,474.181C93.312,474.686 93.453,475.184 93.625,475.67C93.622,475.697 93.622,475.723 93.625,475.75C93.705,475.964 93.792,476.177 93.879,476.383C93.966,476.589 94.069,476.796 94.172,476.994L94.291,477.223C94.394,477.406 94.497,477.588 94.608,477.762C94.688,477.901 94.778,478.033 94.877,478.158C94.917,478.225 94.962,478.289 95.012,478.348C95.099,478.467 95.194,478.586 95.289,478.697L95.448,478.879C95.551,478.998 95.67,479.117 95.781,479.228L95.923,479.355L96.113,479.521C96.273,479.657 96.44,479.784 96.613,479.901L96.684,479.949L96.731,479.949L97.096,480.163L97.286,480.274L97.674,480.456L97.912,480.551C98.256,480.681 98.612,480.779 98.974,480.844C100.291,481.036 101.636,480.855 102.856,480.321L174.96,450.489C175.958,450.044 176.843,449.38 177.551,448.548C178.393,447.567 179.094,446.474 179.635,445.3C180.258,443.994 180.734,442.622 181.053,441.211C181.396,439.729 181.579,438.215 181.6,436.695L182.004,389.288L183.517,210.368C183.524,208.808 183.367,207.252 183.05,205.725C182.745,204.294 182.283,202.902 181.671,201.573C181.139,200.418 180.436,199.35 179.587,198.403C178.939,197.6 178.111,196.959 177.171,196.533L143.203,184.648L116.207,175.188L103.688,170.806C102.421,170.335 101.043,170.247 99.726,170.552L99.441,170.632L99.275,170.632L98.998,170.735L98.649,170.885L98.419,170.996L98.372,170.996C98.15,171.115 97.928,171.234 97.714,171.376L97.666,171.376C97.429,171.543 97.199,171.717 96.977,171.907L96.898,171.979L96.613,172.248L96.422,172.438C96.389,172.469 96.36,172.503 96.335,172.541L96.153,172.755C96.082,172.842 96.002,172.929 95.931,173.024C95.824,173.147 95.726,173.276 95.638,173.413C95.607,173.446 95.581,173.484 95.559,173.524L95.4,173.753C95.313,173.888 95.234,174.031 95.147,174.173L94.885,174.665C94.822,174.783 94.766,174.91 94.703,175.037C94.64,175.164 94.505,175.489 94.418,175.718L94.275,176.099C94.235,176.178 94.212,176.265 94.18,176.344C94.148,176.424 94.109,176.566 94.077,176.677C94.045,176.788 94.022,176.859 93.99,176.955C93.916,177.182 93.853,177.419 93.8,177.668L93.705,178.111C93.705,178.254 93.649,178.397 93.625,178.539C93.622,178.597 93.622,178.655 93.625,178.714L93.625,178.912C93.625,179.133 93.562,179.355 93.53,179.585L93.53,179.72C93.53,179.958 93.483,180.203 93.467,180.449C93.451,180.694 93.467,180.821 93.467,181.011L93.467,202.31L93.134,450.474L92.928,470.504Z" style="fill:rgb(70,92,135);fill-rule:nonzero;"/>
        <path d="M180.174,206.43C179.92,205.226 179.532,204.054 179.017,202.936C178.61,202.057 178.076,201.243 177.432,200.519C177.075,200.088 176.622,199.746 176.109,199.521L143.853,188.206L102.65,173.77C102.192,173.607 101.711,173.518 101.224,173.508C100.957,173.504 100.69,173.536 100.432,173.603C99.743,173.79 99.124,174.172 98.649,174.705C97.931,175.507 97.391,176.452 97.064,177.478C96.601,178.924 96.374,180.436 96.391,181.955L96.01,470.528C95.983,471.93 96.206,473.325 96.668,474.649C96.94,475.539 97.418,476.354 98.063,477.026C98.491,477.464 99.045,477.76 99.647,477.873C99.814,477.886 99.98,477.886 100.147,477.873C100.722,477.86 101.29,477.736 101.818,477.509L173.922,447.669C174.473,447.404 174.961,447.026 175.356,446.56C175.999,445.791 176.532,444.938 176.941,444.024C177.465,442.928 177.866,441.777 178.138,440.593C178.427,439.33 178.581,438.039 178.597,436.743L179.073,389.297L179.207,373.6L180.586,210.376C180.588,209.05 180.45,207.727 180.174,206.43Z" style="fill:rgb(43,67,153);fill-rule:nonzero;"/>
        <path d="M97.46,480.337L97.269,480.227L96.857,479.981L96.651,479.83C96.525,479.743 96.406,479.648 96.279,479.545L96.089,479.379L95.906,479.196C95.636,478.937 95.387,478.656 95.162,478.357L95.098,478.285C94.853,477.947 94.631,477.592 94.433,477.224L94.29,477.025C94.081,476.623 93.898,476.208 93.743,475.781L93.743,475.702C93.573,475.214 93.43,474.717 93.316,474.213L93.316,474.125C93.198,473.573 93.111,473.015 93.054,472.454L93.054,472.414C92.99,471.79 92.958,471.163 92.959,470.536L75.187,464.197L75.187,465.441C75.187,465.544 75.187,465.774 75.234,465.94C75.231,465.961 75.231,465.983 75.234,466.004L75.282,466.384L75.353,466.852C75.353,467.01 75.409,467.161 75.44,467.311C75.472,467.462 75.44,467.509 75.504,467.612C75.507,467.628 75.507,467.644 75.504,467.66L75.504,467.81L75.646,468.333C75.694,468.508 75.749,468.674 75.805,468.832C75.86,468.991 75.868,469.007 75.9,469.094C75.897,469.12 75.897,469.147 75.9,469.173L75.947,469.316C76.098,469.688 76.264,470.037 76.439,470.378C76.439,470.378 76.439,470.449 76.494,470.489L76.565,470.599C76.629,470.702 76.676,470.813 76.74,470.908C76.892,471.158 77.059,471.399 77.239,471.63L77.294,471.701C77.437,471.883 77.58,472.057 77.73,472.224L78.047,472.517L78.134,472.62L78.19,472.667C78.416,472.868 78.655,473.056 78.903,473.23L79.061,473.325L79.244,473.436C79.559,473.626 79.89,473.787 80.234,473.919L97.975,480.551C97.8,480.488 97.628,480.416 97.46,480.337Z" style="fill:rgb(23,39,90);fill-rule:nonzero;"/>
        <path d="M93.301,181.955L92.952,444.762L92.952,450.625L92.928,463.572L75.156,457.986L75.156,440.744L75.124,187.01L93.301,181.955Z" style="fill:rgb(23,39,90);fill-rule:nonzero;"/>
        <path d="M75.124,186.629L75.124,187.025L85.955,184.014L93.308,181.97L93.308,180.948C93.312,180.903 93.312,180.858 93.308,180.813L93.308,180.615C93.308,180.37 93.308,180.124 93.371,179.886L93.371,179.752C93.371,179.522 93.427,179.3 93.466,179.078L93.466,178.88C93.463,178.822 93.463,178.764 93.466,178.706C93.466,178.563 93.514,178.42 93.546,178.278C93.577,178.135 93.601,178.001 93.633,177.866C93.686,177.618 93.749,177.38 93.823,177.153C93.847,177.059 93.876,176.966 93.91,176.875C93.974,176.677 94.037,176.487 94.108,176.297L94.251,175.917C94.338,175.687 94.441,175.457 94.536,175.235C94.631,175.013 94.655,174.982 94.718,174.863C94.782,174.744 94.837,174.641 94.893,174.53C94.948,174.419 95.083,174.348 95.083,174.348C95.162,174.205 95.249,174.063 95.336,173.928L95.495,173.698C95.517,173.658 95.543,173.621 95.574,173.587L95.653,173.484C95.718,173.384 95.79,173.289 95.867,173.199C95.991,173.029 96.126,172.867 96.271,172.716L96.549,172.422L96.834,172.153L96.913,172.082C97.135,171.892 97.365,171.717 97.602,171.551L97.65,171.551L97.809,171.456C97.969,171.351 98.136,171.256 98.308,171.17L98.585,171.036L98.934,170.885L99.211,170.782L82.572,175.742L81.169,176.162L81.106,176.162C80.865,176.237 80.629,176.327 80.4,176.432L80.171,176.543C79.981,176.638 79.798,176.741 79.616,176.852L79.481,176.923L79.41,176.97C79.177,177.127 78.952,177.297 78.737,177.478L78.665,177.541C78.466,177.716 78.275,177.901 78.095,178.096C78.029,178.157 77.969,178.223 77.913,178.294C77.762,178.468 77.612,178.642 77.477,178.833C77.421,178.904 77.366,178.967 77.318,179.039C77.144,179.292 76.97,179.546 76.811,179.831C76.577,180.257 76.368,180.696 76.185,181.146C76.138,181.265 76.09,181.392 76.051,181.511L75.884,181.923L75.718,182.454L75.575,183.008C75.528,183.183 75.488,183.357 75.456,183.539C75.425,183.721 75.417,183.721 75.401,183.816C75.385,183.911 75.401,183.927 75.401,183.983L75.401,184.125C75.401,184.292 75.345,184.458 75.33,184.625L75.33,185.837C75.334,185.882 75.334,185.927 75.33,185.972L75.33,186.384C75.27,186.472 75.201,186.555 75.124,186.629Z" style="fill:rgb(23,39,90);fill-rule:nonzero;"/>
        <path d="M92.928,463.571L92.92,470.505L75.155,464.182L75.155,457.985L92.928,463.571Z" style="fill:rgb(23,39,90);fill-rule:nonzero;"/>
        <path d="M83.143,270.483L83.595,270.745C83.864,270.902 84.17,270.986 84.483,270.987C84.795,270.989 85.101,270.908 85.372,270.753C85.643,270.598 85.868,270.374 86.025,270.104C86.182,269.834 86.265,269.528 86.265,269.216L86.55,237.522C86.558,237.202 86.48,236.887 86.324,236.608C86.167,236.329 85.939,236.097 85.663,235.937L85.211,235.675C84.942,235.518 84.636,235.434 84.324,235.433C84.012,235.432 83.705,235.513 83.434,235.668C83.163,235.823 82.938,236.047 82.781,236.316C82.624,236.586 82.542,236.893 82.541,237.205L82.256,268.899C82.248,269.218 82.326,269.534 82.483,269.813C82.639,270.091 82.867,270.323 83.143,270.483Z" style="fill:rgb(12,25,58);fill-rule:nonzero;"/>
        <path d="M82.405,270.475L82.849,270.737C83.119,270.894 83.425,270.977 83.737,270.978C84.05,270.979 84.357,270.898 84.628,270.743C84.899,270.589 85.125,270.365 85.283,270.096C85.44,269.826 85.525,269.52 85.527,269.208L85.812,237.514C85.82,237.194 85.741,236.879 85.585,236.6C85.429,236.321 85.201,236.089 84.925,235.929L84.473,235.667C84.203,235.511 83.896,235.427 83.584,235.426C83.272,235.425 82.965,235.506 82.694,235.661C82.422,235.816 82.197,236.039 82.039,236.309C81.881,236.578 81.797,236.884 81.795,237.197L81.51,268.891C81.504,269.211 81.583,269.527 81.741,269.805C81.898,270.084 82.128,270.315 82.405,270.475Z" style="fill:rgb(70,92,135);fill-rule:nonzero;"/>
        <path d="M84.988,269.209L85.281,237.515C85.287,237.195 85.207,236.879 85.05,236.6C84.892,236.321 84.663,236.09 84.385,235.93L83.942,235.669C83.757,235.56 83.552,235.49 83.34,235.462C83.735,235.398 84.14,235.47 84.489,235.669L84.94,235.93C85.217,236.09 85.445,236.322 85.601,236.601C85.757,236.88 85.835,237.195 85.828,237.515L85.542,269.209C85.54,269.466 85.482,269.72 85.373,269.953C85.263,270.185 85.103,270.391 84.906,270.557C84.708,270.722 84.477,270.842 84.229,270.909C83.98,270.976 83.72,270.988 83.466,270.944C83.886,270.885 84.27,270.677 84.55,270.359C84.829,270.04 84.984,269.632 84.988,269.209Z" style="fill:rgb(12,25,58);fill-rule:nonzero;"/>
        <path d="M83.791,235.51C83.358,235.555 82.958,235.757 82.665,236.079C82.373,236.4 82.209,236.818 82.206,237.253L81.921,268.947C81.913,269.266 81.991,269.582 82.147,269.861C82.304,270.14 82.532,270.371 82.808,270.532L83.26,270.793C83.477,270.914 83.717,270.99 83.965,271.015C83.591,271.054 83.215,270.976 82.887,270.793L82.444,270.532C82.166,270.372 81.937,270.14 81.78,269.862C81.622,269.583 81.542,269.267 81.548,268.947L81.834,237.253C81.837,237.006 81.891,236.763 81.993,236.539C82.096,236.315 82.244,236.114 82.428,235.95C82.612,235.786 82.828,235.662 83.063,235.586C83.297,235.511 83.545,235.485 83.791,235.51Z" style="fill:rgb(102,153,255);fill-rule:nonzero;"/>
        <path d="M96.224,209.885L96.398,210.321L140.643,321.828L179.714,311.377L181.449,310.909L179.754,307.375L118.117,179.181L117.911,178.753L103.165,173.746C103.165,173.746 96.216,172.121 96.438,181.954C96.589,188.254 96.391,201.327 96.224,209.885Z" style="fill:rgb(230,236,255);fill-opacity:0.2;fill-rule:nonzero;"/>
        <path d="M127.57,182.493L130.375,189.268C130.599,189.805 130.94,190.287 131.373,190.676C131.806,191.065 132.32,191.353 132.879,191.518L155.604,198.293C156.24,198.482 156.913,198.509 157.563,198.371C158.212,198.233 158.816,197.933 159.32,197.5L162.434,194.711L133.909,183.064L127.57,182.493Z" style="fill:rgb(70,92,135);fill-rule:nonzero;"/>
        <path d="M175.505,223.077C175.505,223.077 188.975,226.247 192.145,232.585L175.505,223.077Z" style="fill:rgb(237,255,255);fill-rule:nonzero;"/>
        <path d="M175.505,223.077C175.505,223.077 188.975,226.247 192.145,232.585" style="fill:none;fill-rule:nonzero;stroke:rgb(230,230,230);stroke-width:0.73px;"/>
        <path d="M228.99,285.721L235.495,299.539C235.495,299.539 248.799,286.608 257.3,278.32C261.032,274.667 263.822,271.918 264.123,271.561C264.424,271.205 264.677,270.817 265.034,270.294C265.621,269.377 266.367,268.572 267.237,267.917C267.577,267.658 267.99,267.515 268.417,267.506C268.844,267.498 269.263,267.625 269.614,267.869C270.093,268.174 270.596,268.439 271.119,268.661C274.439,270.135 280.485,271.696 281.808,271.126C283.393,270.444 291.562,271.918 291.744,271.26C291.926,270.603 291.665,267.616 288.313,266.395C285.421,265.349 283.385,264.351 282.386,263.226C282.047,262.886 281.812,262.456 281.71,261.987C281.607,261.518 281.641,261.03 281.808,260.579C281.827,260.52 281.851,260.461 281.879,260.405C283.052,257.798 290.143,257.767 293.186,259.763C296.229,261.76 298.938,263.06 299.755,262.243C300.571,261.427 300.547,260.619 298.962,259.811C297.378,259.003 295.341,254.051 290.801,252.846C286.261,251.642 271.864,251.261 268.615,252.054C265.802,252.759 258.56,257.45 256.651,258.71L256.183,259.019L254.123,261.047L228.99,285.721Z" style="fill:rgb(242,201,164);fill-rule:nonzero;"/>
        <path d="M191.75,232.189C191.75,232.189 197.692,240.715 201.456,255.865C205.22,271.015 209.974,293.2 215.52,292.408C225.948,290.918 250.233,264.755 254.456,259.232C254.536,259.127 254.639,259.042 254.757,258.983C254.876,258.925 255.006,258.894 255.138,258.894C255.27,258.894 255.4,258.925 255.518,258.983C255.636,259.042 255.739,259.127 255.819,259.232L268.956,282.298C269.08,282.462 269.139,282.666 269.125,282.871C269.11,283.076 269.022,283.269 268.877,283.415C268.877,283.415 250.384,304.293 243.252,308.255C236.121,312.217 219.411,322.351 209.181,321.725C198.952,321.099 191.75,311.274 186.203,289.563C180.657,267.853 175.903,232.189 191.75,232.189Z" style="fill:rgb(237,255,255);fill-rule:nonzero;stroke:rgb(230,230,230);stroke-width:0.73px;"/>
        <path d="M93.941,313.936C93.988,314.729 94.02,315.521 94.036,316.314C94.085,316.998 94.317,317.656 94.708,318.22C95.098,318.785 95.632,319.234 96.254,319.523C101.294,322.478 113.123,321.9 112.513,327.288C112.434,327.993 107.846,339.284 107.759,339.965C107.759,377.998 106.175,383.544 106.175,421.577C106.175,423.835 111.277,447.099 111.721,449.309C112.569,453.572 97.411,463.841 100.628,466.741C103.845,469.641 106.808,472.779 110.136,474.086L158.684,454L168.429,449.967C168.612,449.309 168.794,448.612 168.992,447.867C171.369,438.866 175.141,424.049 178.944,406.348C183.809,383.663 188.737,356.256 190.94,330.283C191.455,324.324 191.82,318.453 192.002,312.724C192.184,307.178 192.2,301.734 192.002,296.521C191.946,294.873 191.875,293.24 191.772,291.632C191.445,286.418 191.165,281.558 190.932,277.053C189.371,248.504 189.371,234.21 189.371,233.774L189.332,233.774C189.078,233.584 187.668,232.538 185.37,231.065C184.015,230.201 182.351,229.195 180.434,228.125C178.516,227.055 176.606,226.065 174.396,225.027C173.088,224.409 171.71,223.807 170.284,223.22L169.792,223.022C163.121,220.328 155.332,218.173 147.385,218.086C146.45,218.086 145.499,218.086 144.556,218.141C141.902,218.27 139.268,218.671 136.696,219.338C136.696,219.338 135.745,219.433 134.16,219.663C133.162,219.805 131.918,220.003 130.484,220.257C129.24,220.479 127.861,220.748 126.395,221.049C124.074,221.556 121.554,222.206 119.034,222.999L118.971,222.999C116.812,223.662 114.695,224.456 112.632,225.376C108.916,227.055 105.628,229.163 103.552,231.786C103.444,231.915 103.343,232.049 103.251,232.19L103.013,232.53C102.839,232.8 102.68,233.053 102.546,233.283L102.363,233.616L102.126,234.076C102.046,234.258 101.967,234.44 101.896,234.63L101.848,234.757C101.848,234.812 101.809,234.868 101.785,234.931C101.782,234.947 101.782,234.963 101.785,234.979C101.787,234.992 101.787,235.005 101.785,235.018C101.616,235.492 101.492,235.98 101.413,236.476C100.208,243.782 98.061,262.149 96.389,279.319C94.796,294.833 93.671,309.309 93.941,313.936Z" style="fill:rgb(45,192,229);fill-rule:nonzero;"/>
        <path d="M158.581,235.359C167.186,241.698 167.978,319.348 167.186,326.479C166.393,333.61 177.486,355.004 177.486,355.004L163.224,416.807L147.377,424.731L140.246,296.37C140.246,296.37 149.976,229.02 158.581,235.359Z" style="fill:rgb(32,159,188);fill-rule:nonzero;"/>
        <path d="M155.302,455.363L158.638,453.984L168.384,449.951L173.93,447.653C174.081,447.59 174.041,446.457 174.295,446.124L175.879,437.408C176.767,432.464 176.672,433.209 178.756,421.68C180.402,412.73 181.566,403.697 182.242,394.621C183.407,378.347 191.069,358.054 193.287,334.625C193.588,331.424 193.99,328.098 194.492,324.649C194.959,321.44 195.339,318.168 195.641,314.856C195.688,314.348 195.736,313.833 195.775,313.318C196.203,308.192 196.441,303.018 196.568,297.812C196.782,286.957 196.354,276.268 195.672,266.768C194.991,257.268 194.088,249.051 193.295,242.997C192.733,238.528 192.233,235.248 191.972,233.545C191.907,233.132 191.752,232.738 191.518,232.391C191.283,232.045 190.976,231.754 190.617,231.54C189.825,231.072 188.755,230.423 187.582,229.733C185.538,228.529 182.963,227.039 180.451,225.637C179.16,224.924 177.884,224.227 176.703,223.609C175.119,222.816 173.732,222.095 172.655,221.643L172.163,221.445C171.868,221.296 171.543,221.219 171.212,221.219C170.882,221.219 170.556,221.296 170.262,221.445C168.273,222.571 168.542,227.927 169.081,232.459C169.24,233.814 169.422,235.09 169.572,236.167L169.644,236.635C169.723,237.142 169.842,237.863 170,238.774C172.187,251.602 181.093,302.075 177.527,331.756L177.527,332.042L155.532,453.834L155.302,455.363Z" style="fill:rgb(237,255,255);fill-rule:nonzero;"/>
        <path d="M169.564,236.151C169.564,236.151 177.487,289.912 177.487,300.276L177.487,332.025C177.487,332.025 183.034,287.653 184.619,275.768C185.459,269.794 185.988,263.78 186.203,257.75C186.225,257.009 186.056,256.275 185.712,255.619L180.887,246.451C180.369,245.46 180.223,244.316 180.475,243.226C181.307,239.661 183.113,231.468 182.733,229.344C182.242,226.611 170.895,219.099 167.852,222.063C164.81,225.026 169.564,236.151 169.564,236.151Z" style="fill:rgb(237,255,255);fill-rule:nonzero;stroke:rgb(230,230,230);stroke-width:0.73px;"/>
        <path d="M167.185,242.49C168.834,241.944 173.215,232.919 176.527,224.045C176.773,223.379 177.019,222.713 177.248,222.056C178.316,219.108 179.218,216.103 179.95,213.055C181.432,206.454 169.317,198.365 160.593,193.492C158.723,192.446 157.012,191.55 155.625,190.845C153.502,189.768 152.131,189.142 152.131,189.142L152.131,187.818C152.131,187.818 152.131,188.745 152.075,190.29C152.075,190.877 152.02,191.558 151.98,192.311L151.98,192.969C151.592,199.498 150.396,210.686 146.616,217.135C144.382,220.915 164.808,243.283 167.185,242.49Z" style="fill:rgb(241,217,192);fill-rule:nonzero;"/>
        <path d="M160.594,193.491C161.284,199.537 164.295,214.441 177.234,222.055C178.302,219.108 179.204,216.103 179.935,213.054C181.449,206.454 169.318,198.364 160.594,193.491Z" style="fill:rgb(248,58,49);fill-opacity:0.35;fill-rule:nonzero;"/>
        <path d="M213.443,127.092C213.443,127.092 225.027,135.522 225.027,149.785C225.027,164.047 214.727,166.424 214.727,166.424C214.727,166.424 201.067,134.508 213.443,127.092Z" style="fill:rgb(23,39,90);fill-rule:nonzero;"/>
        <path d="M140.641,160.085C140.596,169.392 143.821,178.42 149.753,185.591C152.178,189.719 165.45,211.699 175.822,216.723C179.307,218.466 183.117,219.467 187.01,219.662C189.22,219.727 191.417,219.306 193.447,218.43C195.478,217.554 197.291,216.244 198.76,214.591C202.358,210.629 207.801,204.061 210.337,198.499C211.439,195.924 212.17,193.205 212.508,190.425C212.965,186.86 213.122,183.263 212.975,179.672C212.975,179.149 212.935,178.666 212.912,178.222C212.88,177.542 213.007,176.864 213.284,176.241C215.536,171.153 216.701,165.65 216.707,160.085C216.709,157.563 216.476,155.045 216.01,152.566C215.425,149.422 214.462,146.359 213.141,143.446C207.072,130.103 193.935,120.872 178.698,120.872C157.677,120.864 140.641,138.423 140.641,160.085Z" style="fill:rgb(241,217,192);fill-rule:nonzero;"/>
        <g opacity="0.15">
            <path d="M171.95,186.348C167.642,183.747 165.263,179.795 166.636,177.521C168.008,175.247 172.614,175.512 176.922,178.113C181.23,180.714 183.61,184.666 182.237,186.94C180.864,189.214 176.259,188.949 171.95,186.348Z" style="fill:rgb(248,58,49);fill-opacity:0.15;fill-rule:nonzero;"/>
            <path d="M206.25,189.3C207.193,190.884 209.689,191.225 212.589,190.441C213.046,186.876 213.203,183.279 213.056,179.688C212.557,179.928 212.071,180.192 211.598,180.481C207.264,183.064 204.879,187.026 206.25,189.3Z" style="fill:rgb(248,58,49);fill-opacity:0.15;fill-rule:nonzero;"/>
        </g>
        <path d="M136.111,155.268C136.111,155.268 125.018,144.967 120.058,152.439C115.098,159.911 118.291,175.417 124.662,174.958C131.032,174.498 141.103,168.357 141.103,168.357L142.26,155.093" style="fill:rgb(23,39,90);fill-rule:nonzero;"/>
        <path d="M139.058,173.556C134.025,173.556 129.946,169.121 129.946,163.651C129.946,158.181 134.025,153.747 139.058,153.747C144.09,153.747 148.17,158.181 148.17,163.651C148.17,169.121 144.09,173.556 139.058,173.556Z" style="fill:rgb(175,221,208);fill-rule:nonzero;"/>
        <path d="M168.772,148.2C168.772,148.2 168.772,156.124 171.149,154.539C173.526,152.954 179.865,152.954 182.242,155.331C184.619,157.709 190.958,156.916 190.958,156.916C190.958,156.916 191.75,160.086 201.258,160.086C209.467,160.086 214.728,154.183 216.012,152.566C215.427,149.422 214.464,146.36 213.143,143.446L206.805,140.277L194.127,137.107L168.772,148.2Z" style="fill:rgb(248,58,49);fill-opacity:0.35;fill-rule:nonzero;"/>
        <path d="M211.558,124.43C211.558,124.43 221.066,133.146 220.273,140.277C219.481,147.408 216.312,154.539 206.803,156.916C197.295,159.293 192.692,156.916 192.692,156.916C192.692,156.916 197.295,156.124 199.672,153.747C202.049,151.37 202.049,149.785 202.049,149.785C199.926,152.281 197.198,154.191 194.126,155.332C189.372,156.916 183.033,154.539 183.033,154.539C183.033,154.539 190.164,148.993 190.164,147.408C190.164,145.823 187.787,150.902 178.675,151.924C169.563,152.947 171.94,152.954 171.94,152.954C171.94,152.954 171.148,164.047 166.394,167.217C161.64,170.386 160.847,178.31 160.847,179.102C160.847,179.894 158.47,180.687 155.301,175.933C152.131,171.179 148.962,190.987 148.962,190.987C148.962,190.987 137.077,188.61 135.492,170.386C133.907,152.162 134.7,139.485 141.831,129.976C148.962,120.468 156.885,116.3 178.675,116.007C200.465,115.714 211.558,124.43 211.558,124.43Z" style="fill:rgb(23,39,90);fill-rule:nonzero;"/>
        <path d="M154.509,174.348C154.509,174.348 147.378,168.802 144.208,171.971C141.039,175.141 142.228,187.375 148.963,189.403C155.697,191.431 158.471,192.572 158.471,192.572L154.509,174.348Z" style="fill:rgb(241,217,192);fill-rule:nonzero;"/>
        <path d="M174.801,163.413C174.801,163.413 181.821,163.096 186.203,164.206C188.105,164.681 189.198,165.981 189.824,166.4C189.91,166.457 190.01,166.488 190.113,166.49C190.216,166.491 190.317,166.463 190.405,166.409C190.492,166.355 190.563,166.277 190.607,166.184C190.652,166.091 190.669,165.988 190.656,165.885C190.474,164.483 189.713,161.71 186.988,161.036C182.614,159.927 174.801,163.413 174.801,163.413Z" style="fill:rgb(23,39,90);fill-rule:nonzero;"/>
        <path d="M213.404,168.666C211.159,167.259 208.606,166.419 205.964,166.218C203.975,166.044 202.922,166.931 202.177,167.129C202.073,167.157 201.963,167.153 201.861,167.12C201.759,167.086 201.669,167.023 201.602,166.939C201.535,166.856 201.493,166.754 201.483,166.647C201.472,166.54 201.493,166.432 201.543,166.337C201.959,165.42 202.661,164.663 203.544,164.179C204.427,163.694 205.443,163.509 206.44,163.651C211.027,164.047 213.404,168.666 213.404,168.666Z" style="fill:rgb(23,39,90);fill-rule:nonzero;"/>
        <path d="M174.571,170.489C175.363,170.806 178.01,172.573 180.72,173.753L181.441,174.054C181.71,174.165 181.98,174.26 182.233,174.348C183.335,174.68 184.482,174.841 185.632,174.823L186.425,174.823C187.867,174.712 189.071,174.316 189.34,173.595C189.554,173.032 188.326,172.01 187.756,171.218C186.889,169.804 185.55,168.743 183.976,168.223C180.728,167.01 175.68,169.649 174.524,170.291C174.512,170.306 174.505,170.324 174.501,170.343C174.497,170.362 174.498,170.382 174.502,170.401C174.507,170.419 174.515,170.437 174.527,170.452C174.539,170.467 174.554,170.48 174.571,170.489Z" style="fill:rgb(237,255,255);fill-rule:nonzero;"/>
        <path d="M189.508,173.508C189.011,172.05 188.145,170.746 186.996,169.721C185.831,168.67 184.415,167.939 182.884,167.597C182.506,167.497 182.122,167.42 181.735,167.367C181.349,167.305 180.96,167.262 180.57,167.241C179.775,167.17 178.974,167.218 178.193,167.383C177.398,167.55 176.644,167.873 175.974,168.334C175.284,168.789 174.77,169.465 174.517,170.252L174.588,170.299C175.839,169.638 177.171,169.142 178.55,168.825C179.911,168.495 181.323,168.431 182.709,168.635C184.118,168.824 185.454,169.369 186.592,170.22C187.745,171.101 188.665,172.252 189.27,173.571L189.508,173.508Z" style="fill:rgb(23,39,90);fill-rule:nonzero;"/>
        <path d="M181.45,174.055C181.719,174.166 181.989,174.261 182.242,174.348C183.344,174.681 184.491,174.841 185.642,174.823L186.434,174.823C186.785,174.355 186.974,173.785 186.973,173.199C186.973,172.464 186.68,171.758 186.16,171.238C185.64,170.718 184.935,170.426 184.199,170.426C183.464,170.426 182.759,170.718 182.238,171.238C181.718,171.758 181.426,172.464 181.426,173.199C181.45,173.254 181.45,173.643 181.45,174.055Z" style="fill:rgb(23,39,90);fill-rule:nonzero;"/>
        <path d="M182.241,171.971C181.803,171.971 181.449,171.617 181.449,171.179C181.449,170.741 181.803,170.387 182.241,170.387C182.678,170.387 183.033,170.741 183.033,171.179C183.033,171.617 182.678,171.971 182.241,171.971Z" style="fill:rgb(237,255,255);fill-rule:nonzero;"/>
        <path d="M200.465,174.744C201.146,175.582 201.969,176.292 202.898,176.844L203.294,177.05C203.893,177.346 204.551,177.506 205.219,177.517C206.085,177.518 206.948,177.425 207.794,177.24C207.961,177.2 208.119,177.169 208.27,177.121C209.696,176.741 210.766,176.059 210.766,175.14C210.766,173.611 207.842,171.971 205.219,171.971C202.596,171.971 200.465,174.744 200.465,174.744Z" style="fill:rgb(237,255,255);fill-rule:nonzero;"/>
        <path d="M202.842,176.329C202.841,176.502 202.859,176.675 202.898,176.844L203.294,177.05C203.893,177.347 204.551,177.506 205.219,177.517C206.085,177.518 206.948,177.425 207.794,177.24C207.961,177.2 208.119,177.169 208.27,177.121C208.35,176.865 208.39,176.598 208.389,176.329C208.389,175.593 208.096,174.888 207.576,174.368C207.056,173.848 206.351,173.556 205.615,173.556C204.88,173.556 204.175,173.848 203.654,174.368C203.134,174.888 202.842,175.593 202.842,176.329Z" style="fill:rgb(23,39,90);fill-rule:nonzero;"/>
        <path d="M202.843,174.348C202.843,174.505 202.89,174.658 202.977,174.788C203.064,174.919 203.187,175.02 203.332,175.08C203.477,175.14 203.636,175.156 203.79,175.125C203.944,175.095 204.085,175.019 204.196,174.908C204.306,174.797 204.382,174.656 204.413,174.503C204.443,174.349 204.427,174.19 204.367,174.045C204.307,173.9 204.206,173.776 204.076,173.689C203.945,173.602 203.792,173.556 203.635,173.556" style="fill:rgb(237,255,255);fill-rule:nonzero;"/>
        <path d="M96.057,470.528C96.014,471.927 96.221,473.322 96.667,474.648C96.939,475.539 97.416,476.353 98.061,477.025C98.49,477.464 99.043,477.76 99.646,477.873C99.812,477.885 99.979,477.885 100.145,477.873C100.721,477.86 101.288,477.736 101.817,477.509L127.647,466.828L158.644,454C158.755,453.136 158.882,452.177 159.017,451.108C159.944,443.739 161.394,431.418 163.24,414.002C166.409,383.457 163.24,335.211 163.24,335.211C163.242,335.19 163.242,335.168 163.24,335.147C162.899,332.334 152.052,242.442 147.076,236.167C144.62,233.093 145.562,222.824 141.831,219.528C140.515,218.371 138.661,217.99 136.522,218.07C135.437,218.115 134.357,218.237 133.289,218.434C131.839,218.696 130.31,219.068 128.749,219.48C126.308,220.122 123.789,220.867 121.388,221.429L121.325,221.429C118.985,221.967 116.704,222.728 114.51,223.703C111.132,225.122 108.167,227.37 105.89,230.24C105.782,230.369 105.681,230.504 105.588,230.644L105.351,230.985C105.176,231.254 105.018,231.508 104.883,231.738L104.701,232.07L104.463,232.53C104.376,232.71 104.299,232.895 104.234,233.085C104.162,233.267 104.123,233.386 104.107,233.433C104.109,233.446 104.109,233.46 104.107,233.473C103.988,234.099 102.364,242.656 101.444,253.551C100.652,263.115 100.153,274.469 99.575,283.716C99.313,287.891 99.036,291.639 98.703,294.603C98.132,299.587 97.316,306.86 96.437,314.681C96.389,315.14 96.334,315.608 96.286,316.075L96.057,470.528Z" style="fill:rgb(237,255,255);fill-rule:nonzero;"/>
        <path d="M96.058,470.528C96.015,471.927 96.222,473.322 96.668,474.649C96.94,475.539 97.417,476.354 98.062,477.026C98.491,477.464 99.044,477.76 99.647,477.873C99.813,477.886 99.98,477.886 100.146,477.873C100.722,477.86 101.289,477.736 101.818,477.509L127.648,466.828C123.845,459.824 112.301,458.572 108.545,447.725C103.149,432.131 121.222,360.011 122.015,307.479C122.276,290.602 128.417,276.205 123.6,263.107C103.791,209.227 113.299,286.878 110.13,273.408C106.96,259.938 105.201,287.464 105.201,287.464L99.544,283.764C99.282,287.939 99.005,291.687 98.672,294.65C98.102,299.634 97.286,306.908 96.406,314.729C96.359,315.188 96.303,315.656 96.256,316.123L96.058,470.528Z" style="fill:rgb(235,237,237);fill-rule:nonzero;"/>
        <path d="M210.766,175.933C211.44,175.204 211.044,174.602 210.869,174.007C210.645,173.388 210.315,172.811 209.895,172.304C209.455,171.764 208.87,171.359 208.21,171.138C207.549,170.916 206.84,170.886 206.163,171.052C204.94,171.292 203.785,171.798 202.779,172.534C201.786,173.222 200.947,174.11 200.315,175.14C201.202,174.393 202.16,173.735 203.176,173.175C204.153,172.63 205.232,172.29 206.345,172.177C206.823,172.098 207.313,172.147 207.765,172.32C208.218,172.493 208.616,172.782 208.92,173.159C209.249,173.558 209.516,174.004 209.712,174.483C209.974,174.974 209.903,175.505 210.766,175.933Z" style="fill:rgb(23,39,90);fill-rule:nonzero;"/>
        <path d="M197.296,180.687C197.296,180.687 200.117,188.61 201.084,189.402C202.051,190.195 201.258,193.364 197.296,194.156" style="fill:rgb(248,58,49);fill-opacity:0.35;fill-rule:nonzero;"/>
        <path d="M184.278,203.919C191.6,207.983 195.664,203.126 196.48,201.478C196.662,201.109 196.728,200.693 196.668,200.285C196.609,199.878 196.427,199.498 196.148,199.196C196.039,199.096 195.923,199.006 195.799,198.927C194.757,198.378 193.582,198.133 192.408,198.221C188.327,198.221 184.254,196.13 181.671,194.941L180.958,194.624C180.461,194.378 179.925,194.22 179.374,194.157C177.773,194.157 176.957,199.854 184.278,203.919Z" style="fill:rgb(23,39,90);fill-rule:nonzero;"/>
        <path d="M180.956,194.624C184.617,199.814 191.122,200.495 193.333,200.495C193.846,200.469 194.343,200.309 194.776,200.031C195.208,199.753 195.56,199.367 195.797,198.911C194.755,198.362 193.58,198.117 192.406,198.205C188.325,198.205 184.252,196.114 181.669,194.925L180.956,194.624Z" style="fill:rgb(237,255,255);fill-rule:nonzero;"/>
        <path d="M132.323,218.918C132.323,218.918 145.793,211.787 148.17,214.164C150.547,216.541 161.64,239.519 162.432,263.44C163.225,287.361 163.225,335.227 163.225,335.227C163.225,335.227 154.509,283.851 148.17,273.233C141.831,262.616 140.246,260.144 143.416,253.552C145.104,250.041 146.34,247.617 147.132,246.111C147.427,245.548 147.536,244.904 147.442,244.275C147.348,243.646 147.056,243.062 146.609,242.609C142.75,238.687 132.965,228.505 131.554,224.718C129.74,219.948 132.323,218.918 132.323,218.918Z" style="fill:rgb(237,255,255);fill-rule:nonzero;stroke:rgb(230,230,230);stroke-width:0.73px;"/>
        <path d="M133.289,355.915L133.289,354.56L115.065,311.527C112.985,306.645 112.644,301.196 114.098,296.092C117.616,283.89 123.939,260.682 124.129,251.071C124.391,237.736 121.396,223.394 114.97,223.83C114.82,223.776 114.667,223.734 114.51,223.703C112.537,223.323 104.685,223.022 99.456,240.905C97.934,246.127 96.445,252.283 95.05,258.733C93.26,267.045 91.627,275.856 90.296,283.819C88.609,294.04 87.444,302.835 87.127,307.462C86.929,310.228 88.236,315.528 90.296,321.915C91.437,325.433 92.816,329.276 94.298,333.206C94.535,333.855 94.789,334.513 95.034,335.171C95.122,335.385 95.201,335.599 95.288,335.821C101.666,352.27 109.344,369.266 109.344,369.266C110.476,370.828 111.998,372.065 113.758,372.855C116.145,373.958 118.773,374.436 121.396,374.242C122.136,374.208 122.874,374.134 123.607,374.02C128.361,373.283 130.817,369.036 132.053,364.694C132.735,362.141 133.136,359.521 133.249,356.881C133.249,356.54 133.249,356.224 133.289,355.946" style="fill:rgb(237,255,255);fill-rule:nonzero;"/>
        <path d="M133.289,355.915L133.289,354.56L115.065,311.527C112.985,306.645 112.644,301.196 114.098,296.092C117.616,283.89 123.939,260.682 124.129,251.071C124.391,237.736 121.396,223.394 114.97,223.83C114.82,223.776 114.667,223.734 114.51,223.703C112.537,223.323 104.685,223.022 99.456,240.905C97.934,246.127 96.445,252.283 95.05,258.733C93.26,267.045 91.627,275.856 90.296,283.819C88.609,294.04 87.444,302.835 87.127,307.462C86.929,310.228 88.236,315.528 90.296,321.915C91.437,325.433 92.816,329.276 94.298,333.206C94.535,333.855 94.789,334.513 95.034,335.171C95.122,335.385 95.201,335.599 95.288,335.821C101.666,352.27 109.344,369.266 109.344,369.266C110.476,370.828 111.998,372.065 113.758,372.855C116.145,373.958 118.773,374.436 121.396,374.242C122.136,374.208 122.874,374.134 123.607,374.02C128.361,373.283 130.817,369.036 132.053,364.694C132.735,362.141 133.136,359.521 133.249,356.881C133.249,356.54 133.249,356.224 133.289,355.946" style="fill:none;fill-rule:nonzero;stroke:rgb(230,230,230);stroke-width:0.73px;"/>
        <path d="M181.845,398.979C181.845,398.979 189.024,367.396 192.146,344.307C197.193,306.948 198.746,269.16 195.315,253.979" style="fill:rgb(237,255,255);fill-rule:nonzero;"/>
        <path d="M181.845,398.979C181.845,398.979 189.024,367.396 192.146,344.307C197.193,306.948 198.746,269.16 195.315,253.979" style="fill:none;fill-rule:nonzero;stroke:rgb(230,230,230);stroke-width:0.73px;"/>
        <path d="M115.841,375.074C116.89,376.039 118.175,376.71 119.567,377.017C120.959,377.325 122.407,377.258 123.765,376.825C126.807,375.985 127.513,373.656 129.874,370.122C131.031,368.369 131.922,366.454 132.52,364.441C132.687,363.886 132.821,363.331 132.94,362.777C133.464,360.485 133.524,358.111 133.114,355.796L133.114,355.749C132.736,353.56 131.677,351.547 130.088,349.996C129.762,349.687 129.41,349.409 129.034,349.164L128.978,349.124C124.652,346.304 118.456,348.332 114.225,354.124C114.027,354.386 113.845,354.663 113.654,354.917C113.472,355.202 113.29,355.487 113.123,355.772C112.668,356.537 112.263,357.331 111.911,358.149C111.209,359.747 110.712,361.427 110.429,363.149C109.613,367.903 113.013,372.435 115.841,375.074Z" style="fill:rgb(204,204,204);fill-rule:nonzero;"/>
        <path d="M152.814,177.24C152.814,177.24 147.964,173.207 146.879,174.966C145.793,176.725 145.793,185.615 151.34,186.32C156.886,187.025 155.864,179.332 152.814,177.24Z" style="fill:rgb(248,58,49);fill-opacity:0.15;fill-rule:nonzero;"/>
        <path d="M151.34,181.479C150.027,181.479 148.963,180.414 148.963,179.102C148.963,177.789 150.027,176.725 151.34,176.725C152.653,176.725 153.717,177.789 153.717,179.102C153.717,180.414 152.653,181.479 151.34,181.479Z" style="fill:rgb(51,51,51);fill-rule:nonzero;"/>
        <path d="M150.151,178.705C150.151,178.705 144.668,177.604 146.419,186.676C148.17,195.749 160.57,221.413 160.57,221.413" style="fill:none;fill-rule:nonzero;stroke:rgb(230,230,230);stroke-width:1.45px;"/>
        <path d="M291.982,263.487C291.982,263.487 274.551,246.055 252.761,290.03C237.318,321.202 198.881,316.97 187.495,280.641C177.86,249.89 178.676,236.547 178.676,236.547" style="fill:none;fill-rule:nonzero;stroke:rgb(51,51,51);stroke-width:2.18px;"/>
        <path d="M157.931,218.49C159.058,221.357 160.521,224.081 162.289,226.604C167.661,233.917 172.859,237.617 177.74,237.617L178.659,237.617C183.072,237.189 187.026,233.695 190.425,227.237C191.938,224.514 193.165,221.641 194.086,218.664C194.117,218.51 194.117,218.351 194.086,218.197C193.231,218.618 192.336,218.955 191.416,219.203C190.552,221.587 189.509,223.902 188.294,226.128C185.251,231.92 181.868,234.994 178.255,235.264C174.119,235.581 169.23,232.094 164.183,225.241C162.527,222.869 161.157,220.311 160.102,217.618C159.976,217.334 159.745,217.111 159.456,216.995C159.168,216.88 158.846,216.882 158.559,217.001C158.272,217.12 158.043,217.347 157.922,217.632C157.8,217.918 157.795,218.24 157.907,218.529L157.931,218.49Z" style="fill:rgb(51,51,51);fill-rule:nonzero;"/>
        <path d="M300.259,262.459L300.265,262.464C300.548,262.67 300.61,263.067 300.403,263.349L294.516,271.412C294.309,271.695 293.913,271.756 293.63,271.55L293.623,271.545C293.341,271.339 293.279,270.942 293.485,270.66L299.373,262.597C299.58,262.314 299.976,262.252 300.259,262.459Z" style="fill:rgb(179,179,179);fill-rule:nonzero;"/>
        <path d="M295.758,262.185L298.766,264.381L295.074,269.436L292.067,267.24L295.758,262.185Z" style="fill:rgb(179,179,179);fill-rule:nonzero;"/>
        <path d="M295.38,260.695L294.676,260.181C294.303,259.908 293.837,259.795 293.38,259.866C292.923,259.937 292.513,260.187 292.24,260.56L289.189,264.739C288.916,265.112 288.803,265.578 288.874,266.035C288.946,266.492 289.195,266.902 289.569,267.174L290.273,267.689C290.865,268.121 291.605,268.301 292.329,268.188C293.054,268.075 293.704,267.678 294.137,267.086L296.006,264.527C296.438,263.934 296.618,263.195 296.505,262.47C296.392,261.745 295.996,261.095 295.404,260.663L295.38,260.695Z" style="fill:rgb(179,179,179);fill-rule:nonzero;"/>
        <path d="M149.755,179.894C148.88,179.894 148.17,179.362 148.17,178.705C148.17,178.049 148.88,177.517 149.755,177.517C150.63,177.517 151.34,178.049 151.34,178.705C151.34,179.362 150.63,179.894 149.755,179.894Z" style="fill:rgb(51,51,51);fill-rule:nonzero;"/>
        <path d="M197.296,180.687C197.296,180.687 200.117,188.61 201.084,189.402C202.051,190.195 201.258,193.364 197.296,194.156" style="fill:none;fill-rule:nonzero;stroke:rgb(23,39,90);stroke-width:0.73px;"/>
        <path d="M155.119,184.078C155.119,184.078 156.054,176.416 147.354,174.569" style="fill:none;fill-rule:nonzero;stroke:rgb(23,39,90);stroke-width:0.73px;"/>
        <path d="M162.694,239.321C162.694,239.321 167.187,244.075 168.772,244.075C170.356,244.075 167.979,242.49 167.979,242.49L166.458,242.213L162.694,239.321Z" style="fill:rgb(32,159,188);fill-rule:nonzero;"/>
        <path d="M153.319,189.402C152.663,189.402 152.131,188.87 152.131,188.214C152.131,187.558 152.663,187.025 153.319,187.025C153.976,187.025 154.508,187.558 154.508,188.214C154.508,188.87 153.976,189.402 153.319,189.402Z" style="fill:rgb(237,255,255);fill-rule:nonzero;"/>
        <path d="M151.981,192.311L154.604,191.249L152.076,190.29C152.052,190.876 152.02,191.558 151.981,192.311Z" style="fill:rgb(248,58,49);fill-opacity:0.35;fill-rule:nonzero;"/>
        <path d="M163.225,334.521C163.225,334.521 165.602,400.96 163.225,420.768C160.848,440.577 158.471,448.5 158.471,448.5" style="fill:rgb(237,255,255);fill-rule:nonzero;"/>
        <path d="M163.225,334.521C163.225,334.521 165.602,400.96 163.225,420.768C160.848,440.577 158.471,448.5 158.471,448.5" style="fill:none;fill-rule:nonzero;stroke:rgb(230,230,230);stroke-width:0.73px;"/>
        <path d="M166.395,446.917L134.701,459.594" style="fill:none;fill-rule:nonzero;stroke:rgb(70,92,135);stroke-width:2.9px;"/>
        <path d="M113.781,308.976C113.781,308.976 107.759,301.124 100.628,301.916L113.781,308.976Z" style="fill:rgb(237,255,255);fill-rule:nonzero;"/>
        <path d="M113.781,308.976C113.781,308.976 107.759,301.124 100.628,301.916" style="fill:none;fill-rule:nonzero;stroke:rgb(230,230,230);stroke-width:0.73px;"/>
        <path d="M137.584,371.072C137.584,371.072 142.623,378.719 144.208,379.424C145.793,380.129 142.94,385.049 138.804,382.11C134.668,379.17 131.831,369.844 131.831,369.844L137.584,371.072Z" style="fill:rgb(242,201,164);fill-rule:nonzero;"/>
        <path d="M128.813,373.402C128.813,373.402 132.775,382.348 136.737,384.963C140.698,387.577 142.402,384.646 142.346,383.703C142.291,382.76 134.359,376.572 134.09,371.817C133.821,367.063 129.946,371.746 128.813,373.402Z" style="fill:rgb(242,201,164);fill-rule:nonzero;"/>
        <path d="M142.204,367.863C142.82,370.249 144.267,372.336 146.285,373.75C149.581,375.945 147.259,376.864 144.05,376.254C140.841,375.644 136.127,369.606 136.127,369.606L142.244,367.863L142.204,367.863Z" style="fill:rgb(242,201,164);fill-rule:nonzero;"/>
        <path d="M108.402,363.466C108.616,363.529 108.981,363.64 109.448,363.798C112.467,364.805 119.86,367.641 120.652,369.654C120.751,369.911 120.828,370.176 120.882,370.446C121.167,371.809 121.349,374.099 121.674,376.532C122.149,379.955 122.926,383.663 124.717,385.533C128.092,389.043 128.837,388.211 131.166,387.284C132.569,384.027 126.943,382.759 127.371,376.389C127.442,375.311 128.298,374.844 129.392,374.638C130.707,374.497 132.031,374.442 133.353,374.471L133.591,374.471C133.964,374.373 134.328,374.24 134.677,374.075C135.911,373.489 137.111,372.836 138.274,372.118C140.231,370.938 142.109,369.686 142.671,369.297L142.846,369.186C142.846,369.186 140.595,364.432 138.662,361.263C138.644,361.224 138.623,361.187 138.599,361.152C138.202,360.494 137.806,359.908 137.474,359.448C137.474,359.385 137.378,359.33 137.323,359.258C137.165,359.058 136.996,358.868 136.816,358.688C136.297,358.192 135.752,357.724 135.184,357.285L134.661,356.889L134.344,356.659L133.551,356.089C132.973,355.709 132.585,355.479 132.585,355.479L132.379,355.067L130.16,350.693C125.359,348.007 118.433,349.901 113.719,355.336L115.676,357.159L123.235,358.403C120.647,358.81 118.039,359.075 115.422,359.195C113.994,359.262 112.562,359.241 111.136,359.132L110.843,359.132C105.74,358.593 106.786,363.022 108.402,363.466Z" style="fill:rgb(242,201,164);fill-rule:nonzero;"/>
        <path d="M113.022,356.105L114.654,358.237L115.367,359.179C117.388,361.842 119.226,364.306 119.582,364.94C120.438,366.43 120.85,370.217 120.874,370.486L132.537,364.457L134.51,363.434L138.662,361.271C138.644,361.232 138.623,361.195 138.599,361.16C138.293,360.55 137.915,359.978 137.474,359.457C137.474,359.393 137.379,359.338 137.323,359.267C137.165,359.067 136.996,358.876 136.816,358.696C136.316,358.18 135.769,357.711 135.184,357.294L135.089,357.23L134.661,356.905L134.344,356.668L133.551,356.097C133.385,355.97 133.235,355.86 133.116,355.757C132.839,355.565 132.591,355.336 132.379,355.075L130.588,351.549L130.16,350.701C129.772,350.147 129.368,349.632 128.988,349.117C124.661,346.296 118.465,348.324 114.234,354.116C114.036,354.378 113.854,354.655 113.663,354.909C113.481,355.194 113.299,355.479 113.133,355.764C113.145,355.859 113.131,355.955 113.093,356.042L113.022,356.105Z" style="fill:rgb(242,201,164);fill-rule:nonzero;"/>
        <path d="M113.022,356.105L114.654,358.237C116.82,356.013 119.303,354.122 122.023,352.627C124.633,351.233 127.664,350.844 130.541,351.534L130.113,350.686C129.725,350.131 129.321,349.616 128.94,349.101C124.614,346.28 118.418,348.309 114.187,354.101C113.989,354.362 113.807,354.64 113.616,354.893C113.434,355.178 113.252,355.464 113.086,355.749C113.098,355.843 113.084,355.939 113.046,356.026L113.022,356.105Z" style="fill:rgb(248,58,49);fill-opacity:0.35;fill-rule:nonzero;"/>
        <path d="M115.374,359.187C113.945,359.254 112.514,359.233 111.088,359.124L110.794,359.124C105.739,358.617 106.785,363.046 108.417,363.49C108.631,363.553 108.996,363.664 109.463,363.822C112.482,364.829 119.875,367.665 120.667,369.678C120.766,369.935 120.843,370.2 120.897,370.47C121.182,371.833 121.364,374.123 121.689,376.556C122.165,379.979 122.941,383.687 124.732,385.557C128.107,389.067 128.852,388.235 131.182,387.308C132.584,384.051 126.958,382.783 127.386,376.413C127.458,375.335 128.313,374.868 129.407,374.662C130.659,377.221 133.709,382.958 136.736,384.962C140.698,387.585 142.401,384.645 142.346,383.703C142.253,383.433 142.095,383.191 141.886,382.997C144.208,382.657 145.404,379.931 144.224,379.424C143.043,378.917 139.723,374.234 138.289,372.118C139.945,373.854 142.251,375.914 144.049,376.254C147.258,376.865 149.596,375.945 146.284,373.751C144.295,372.427 142.853,369.179 142.853,369.179C142.853,369.179 142.607,368.664 142.203,367.863C141.411,366.231 139.969,363.403 138.669,361.271C138.652,361.232 138.63,361.195 138.606,361.16C138.21,360.503 137.814,359.916 137.481,359.457C137.481,359.393 137.386,359.338 137.33,359.266C137.172,359.067 137.003,358.876 136.823,358.696C136.304,358.2 135.759,357.732 135.191,357.294L134.668,356.897L134.351,356.668L133.559,356.097C132.98,355.717 132.592,355.487 132.592,355.487L132.386,355.075L130.167,350.701" style="fill:none;fill-rule:nonzero;stroke:rgb(245,152,124);stroke-width:0.73px;"/>
        <path d="M131.135,387.093C131.135,387.093 131.927,385.509 129.55,383.132C127.173,380.755 127.173,375.208 127.173,372.831" style="fill:none;fill-rule:nonzero;stroke:rgb(245,152,124);stroke-width:0.73px;"/>
        <path d="M141.49,382.681C138.298,379.297 135.54,375.528 133.281,371.461L132.719,370.455" style="fill:none;fill-rule:nonzero;stroke:rgb(245,152,124);stroke-width:0.73px;"/>
        <path d="M138.662,372.435C138.662,372.435 135.493,369.266 135.493,368.474" style="fill:none;fill-rule:nonzero;stroke:rgb(245,152,124);stroke-width:0.73px;"/>
        <path d="M137.078,363.72C137.078,363.72 124.401,367.681 122.023,367.681" style="fill:none;fill-rule:nonzero;stroke:rgb(245,152,124);stroke-width:0.36px;"/>
        <path d="M291.506,261.577C291.506,261.577 289.208,259.921 288.416,259.921C287.623,259.921 287.623,262.298 287.623,262.298C288.479,262.725 289.278,263.257 290,263.883C290.793,264.675 291.506,261.577 291.506,261.577Z" style="fill:rgb(179,179,179);fill-rule:nonzero;"/>
    </g>
</svg>
