<svg width="202" height="93" viewBox="0 0 202 93" fill="none" xmlns="http://www.w3.org/2000/svg">
<g clip-path="url(#clip0_4763_4567)">
<path d="M106.955 20.1701C109.799 20.1701 112.105 17.8644 112.105 15.0201C112.105 12.1758 109.799 9.87012 106.955 9.87012C104.11 9.87012 101.805 12.1758 101.805 15.0201C101.805 17.8644 104.11 20.1701 106.955 20.1701Z" fill="#2B4399"/>
<path d="M129.245 10.3C132.089 10.3 134.395 7.99428 134.395 5.15001C134.395 2.30574 132.089 0 129.245 0C126.4 0 124.095 2.30574 124.095 5.15001C124.095 7.99428 126.4 10.3 129.245 10.3Z" fill="#2B4399"/>
<path d="M151.295 20.1701C154.139 20.1701 156.445 17.8644 156.445 15.0201C156.445 12.1758 154.139 9.87012 151.295 9.87012C148.45 9.87012 146.145 12.1758 146.145 15.0201C146.145 17.8644 148.45 20.1701 151.295 20.1701Z" fill="#2B4399"/>
<path d="M100.015 39.9201C102.859 39.9201 105.165 37.6144 105.165 34.7701C105.165 31.9258 102.859 29.6201 100.015 29.6201C97.1704 29.6201 94.8646 31.9258 94.8646 34.7701C94.8646 37.6144 97.1704 39.9201 100.015 39.9201Z" fill="#1CBFE5"/>
<path d="M158.485 39.9201C161.329 39.9201 163.635 37.6144 163.635 34.7701C163.635 31.9258 161.329 29.6201 158.485 29.6201C155.64 29.6201 153.335 31.9258 153.335 34.7701C153.335 37.6144 155.64 39.9201 158.485 39.9201Z" fill="#1CBFE5"/>
<path d="M123.195 83.1997C123.764 83.5157 124.234 83.9829 124.555 84.5497C124.876 85.1477 125.044 85.8159 125.044 86.4947C125.044 87.1735 124.876 87.8418 124.555 88.4397C124.237 89.0088 123.766 89.4767 123.195 89.7897C122.601 90.1155 121.932 90.2809 121.255 90.2697C120.655 90.279 120.06 90.1668 119.505 89.9397C118.996 89.7175 118.55 89.3742 118.205 88.9397L119.275 87.9397C119.507 88.2133 119.797 88.4321 120.124 88.5808C120.45 88.7294 120.806 88.8042 121.165 88.7997C121.664 88.8197 122.153 88.6521 122.535 88.3297C122.913 88.0053 123.167 87.5602 123.255 87.0697H120.255V85.7797H123.195C123.096 85.3078 122.838 84.8841 122.465 84.5797C122.088 84.2716 121.611 84.1116 121.125 84.1297C120.766 84.1273 120.411 84.203 120.085 84.3515C119.758 84.5 119.468 84.7178 119.235 84.9897L118.165 83.9897C118.51 83.5553 118.956 83.212 119.465 82.9897C120.02 82.7627 120.615 82.6504 121.215 82.6597C121.911 82.6597 122.595 82.8462 123.195 83.1997Z" fill="#2B4399"/>
<path d="M131.325 84.7997C131.748 85.0284 132.096 85.376 132.325 85.7997C132.582 86.2676 132.71 86.7958 132.695 87.3297C132.704 87.8541 132.584 88.3729 132.345 88.8397C132.115 89.263 131.768 89.6104 131.345 89.8397C130.906 90.087 130.408 90.2114 129.905 90.1996C129.611 90.2062 129.319 90.1519 129.047 90.04C128.775 89.9281 128.529 89.7612 128.325 89.5497V92.1696H126.695V87.3596C126.683 86.8268 126.818 86.3011 127.085 85.8397C127.348 85.4117 127.726 85.0655 128.175 84.8397C128.677 84.59 129.233 84.4664 129.795 84.4796C130.323 84.466 130.846 84.5756 131.325 84.7997ZM130.715 88.4697C130.974 88.152 131.115 87.7546 131.115 87.3447C131.115 86.9347 130.974 86.5373 130.715 86.2197C130.589 86.0805 130.434 85.9701 130.261 85.8959C130.089 85.8217 129.902 85.7854 129.715 85.7896C129.528 85.7867 129.343 85.8225 129.171 85.8948C128.998 85.9671 128.843 86.0743 128.715 86.2097C128.462 86.532 128.324 86.9299 128.324 87.3397C128.324 87.7494 128.462 88.1473 128.715 88.4697C128.842 88.6078 128.996 88.7175 129.169 88.7917C129.341 88.8658 129.527 88.9026 129.715 88.8997C129.9 88.9005 130.084 88.8628 130.255 88.7887C130.425 88.7147 130.578 88.6061 130.705 88.4697H130.715Z" fill="#2B4399"/>
<path d="M137.565 90.1798V92.1798H135.935V90.1798L133.555 84.5498H135.245L136.805 88.3698L138.415 84.5498H139.965L137.565 90.1798Z" fill="#2B4399"/>
<path d="M144.485 90.1798V92.1798H142.855V90.1798L140.475 84.5498H142.175L143.725 88.3698L145.325 84.5498H146.875L144.485 90.1798Z" fill="#2B4399"/>
<path d="M153.325 84.55V90.17H151.705V85.89H149.925L149.875 86.89C149.859 87.5084 149.789 88.1241 149.665 88.73C149.584 89.1525 149.398 89.5479 149.125 89.88C148.995 90.0131 148.839 90.1181 148.667 90.1887C148.495 90.2592 148.31 90.2937 148.125 90.29C147.841 90.2834 147.559 90.2431 147.285 90.17L147.365 88.83C147.444 88.8377 147.525 88.8377 147.605 88.83C147.711 88.8367 147.817 88.8163 147.913 88.7708C148.009 88.7254 148.092 88.6563 148.155 88.57C148.283 88.3637 148.365 88.1316 148.395 87.89C148.451 87.5292 148.484 87.1651 148.495 86.8L148.575 84.54L153.325 84.55Z" fill="#2B4399"/>
<path d="M162.595 90.1498L161.325 88.4298L160.055 90.1498H158.325L160.485 87.3198L158.395 84.5498H160.215L161.405 86.1898L162.635 84.5498H164.325L162.325 87.2798L164.495 90.1498H162.595Z" fill="#2B4399"/>
<path d="M169.145 84.7998C169.605 85.0248 169.995 85.3704 170.275 85.7998C170.538 86.2559 170.677 86.7732 170.677 87.2998C170.677 87.8264 170.538 88.3438 170.275 88.7998C169.998 89.2313 169.607 89.5775 169.145 89.7998C168.644 90.0553 168.087 90.1824 167.525 90.1698C167.026 90.1749 166.531 90.0867 166.065 89.9098C165.65 89.7394 165.281 89.4759 164.985 89.1398L165.915 88.2598C166.113 88.4719 166.353 88.6401 166.62 88.7538C166.887 88.8674 167.175 88.924 167.465 88.9198C167.82 88.9214 168.169 88.817 168.465 88.6198C168.753 88.4197 168.965 88.1268 169.065 87.7898H166.705V86.6798H169.045C168.938 86.3546 168.727 86.0734 168.445 85.8798C168.147 85.6878 167.799 85.5871 167.445 85.5898C167.154 85.5863 166.865 85.6442 166.598 85.7596C166.331 85.8751 166.091 86.0455 165.895 86.2598L164.965 85.3898C165.257 85.0476 165.628 84.7802 166.045 84.6098C166.511 84.4329 167.006 84.3447 167.505 84.3498C168.081 84.3585 168.645 84.5133 169.145 84.7998Z" fill="#2B4399"/>
<path d="M177.895 90.1498V86.7898L176.205 89.6098H175.525L173.885 86.7798V90.1498H172.415V84.5498H174.115L175.905 87.7998L177.815 84.5498H179.325V90.1698L177.895 90.1498Z" fill="#2B4399"/>
<path d="M181.545 84.5498H183.165V86.7398H185.605V84.5498H187.235V90.1698H185.605V88.0698H183.165V90.1698H181.545V84.5498Z" fill="#2B4399"/>
<path d="M192.885 84.7998C193.344 85.0224 193.732 85.3687 194.005 85.7998C194.273 86.2542 194.414 86.7722 194.414 87.2998C194.414 87.8275 194.273 88.3455 194.005 88.7998C193.734 89.2331 193.346 89.58 192.885 89.7998C192.383 90.0533 191.827 90.1803 191.265 90.1698C190.766 90.1749 190.271 90.0867 189.805 89.9098C189.39 89.7394 189.021 89.4759 188.725 89.1398L189.655 88.2598C189.851 88.4716 190.089 88.6398 190.354 88.7535C190.62 88.8672 190.906 88.9238 191.195 88.9198C191.567 88.929 191.933 88.8244 192.245 88.6198C192.534 88.4223 192.743 88.1279 192.835 87.7898H190.475V86.6798H192.815C192.712 86.3553 192.504 86.0739 192.225 85.8798C191.926 85.6884 191.579 85.5876 191.225 85.5898C190.935 85.5871 190.649 85.6453 190.383 85.7608C190.118 85.8762 189.88 86.0462 189.685 86.2598L188.755 85.3898C189.047 85.0476 189.418 84.7802 189.835 84.6098C190.301 84.4329 190.796 84.3447 191.295 84.3498C191.853 84.3688 192.399 84.5232 192.885 84.7998Z" fill="#2B4399"/>
<path d="M201.445 84.55V90.17H199.825V85.89H198.045L197.995 86.89C197.979 87.5084 197.909 88.1241 197.785 88.73C197.704 89.1525 197.518 89.5479 197.245 89.88C197.109 90.0195 196.945 90.1282 196.764 90.1989C196.583 90.2697 196.389 90.3007 196.195 90.29C195.911 90.2827 195.629 90.2424 195.355 90.17L195.435 88.83C195.514 88.8377 195.595 88.8377 195.675 88.83C195.781 88.8367 195.887 88.8163 195.983 88.7708C196.079 88.7254 196.162 88.6563 196.225 88.57C196.353 88.3624 196.438 88.1312 196.475 87.89C196.475 87.61 196.545 87.25 196.565 86.8L196.645 84.54L201.445 84.55Z" fill="#2B4399"/>
<path d="M33.7046 64.0201H8.75461C8.83646 66.2125 9.76481 68.2878 11.3446 69.8101C12.8678 71.2096 14.877 71.9595 16.9446 71.9001C18.3688 71.9925 19.7872 71.6474 21.0097 70.911C22.2322 70.1747 23.2004 69.0822 23.7846 67.7801H33.0846C32.1282 71.026 30.1371 73.8704 27.4146 75.8801C24.4362 78.0513 20.8186 79.1669 17.1346 79.0501C14.0476 79.1013 11.0007 78.3465 8.29462 76.8601C5.70919 75.4252 3.59151 73.2763 2.19461 70.6701C0.694298 67.8251 -0.0592382 64.6458 0.00460972 61.4301C-0.0660544 58.1981 0.676699 55.0001 2.16461 52.1301C3.52343 49.5373 5.60844 47.3967 8.16461 45.9701C10.8912 44.5675 13.9113 43.8309 16.9774 43.8204C20.0436 43.81 23.0686 44.5261 25.8046 45.9101C28.3389 47.2655 30.4238 49.3295 31.8046 51.8501C33.2522 54.5683 33.9819 57.611 33.9246 60.6901C33.9402 61.8042 33.8666 62.9177 33.7046 64.0201ZM25.0146 58.2301C25.0332 57.2195 24.8276 56.2174 24.4127 55.2958C23.9977 54.3742 23.3836 53.556 22.6146 52.9001C21.0144 51.5535 18.9752 50.8418 16.8846 50.9001C14.9076 50.8437 12.9823 51.5367 11.4946 52.8401C9.97521 54.2508 9.02237 56.1672 8.81462 58.2301H25.0146Z" fill="#1CBFE5"/>
<path d="M41.4847 52.16C42.8592 49.5786 44.9403 47.442 47.4847 46C50.1568 44.5113 53.1764 43.759 56.2347 43.82C59.991 43.6699 63.6889 44.7863 66.7347 46.99C69.5771 49.2139 71.5512 52.3627 72.3147 55.89H63.0047C62.5727 54.4913 61.6991 53.2703 60.5147 52.41C59.2389 51.539 57.7185 51.0976 56.1747 51.15C55.0559 51.1037 53.9419 51.3224 52.9236 51.7881C51.9053 52.2538 51.0114 52.9534 50.3147 53.83C48.8847 55.61 48.1647 58.15 48.1647 61.43C48.1647 64.71 48.8847 67.19 50.3147 68.98C51.013 69.8548 51.9072 70.5532 52.9251 71.0187C53.9431 71.4842 55.0562 71.7039 56.1747 71.66C59.668 71.66 61.9447 70.1 63.0047 66.98H72.3247C71.5083 70.4653 69.5298 73.5689 66.7147 75.78C63.7001 78.0328 60.0056 79.1867 56.2447 79.05C53.1855 79.1076 50.166 78.3518 47.4947 76.86C44.9503 75.4181 42.8692 73.2814 41.4947 70.7C40.0758 67.8158 39.3379 64.6444 39.3379 61.43C39.3379 58.2157 40.0758 55.0442 41.4947 52.16H41.4847Z" fill="#2B4399"/>
<path d="M87.2446 32.9102V78.4902H78.6246V32.9102H87.2446Z" fill="#2B4399"/>
<path d="M104.375 44.3701V78.4901H95.7446V44.3701H104.375Z" fill="#2B4399"/>
<path d="M141.775 47.7301C144.281 50.2901 145.535 53.8734 145.535 58.4801V78.4801H136.915V59.6501C137.076 57.3841 136.36 55.1427 134.915 53.3901C134.2 52.6532 133.336 52.0775 132.38 51.7016C131.425 51.3256 130.4 51.1581 129.375 51.2101C128.334 51.1572 127.294 51.3239 126.322 51.6995C125.351 52.0751 124.469 52.6511 123.735 53.3901C122.264 55.1317 121.526 57.3755 121.675 59.6501V78.4901H113.055V44.3701H121.675V48.6201C122.844 47.1266 124.352 45.9335 126.075 45.1401C127.92 44.2877 129.932 43.8573 131.965 43.8801C133.777 43.8094 135.584 44.1151 137.273 44.7777C138.961 45.4403 140.494 46.4456 141.775 47.7301Z" fill="#2B4399"/>
<path d="M162.795 44.3701V78.4901H154.175V44.3701H162.795Z" fill="#2B4399"/>
<path d="M170.655 52.16C172.026 49.5763 174.108 47.4389 176.655 46C179.327 44.5113 182.346 43.759 185.405 43.82C189.161 43.6699 192.859 44.7863 195.905 46.99C198.747 49.2121 200.719 52.3622 201.475 55.89H192.175C191.743 54.4913 190.869 53.2703 189.685 52.41C188.403 51.5349 186.875 51.0933 185.325 51.15C184.206 51.1037 183.092 51.3224 182.074 51.7881C181.055 52.2538 180.161 52.9534 179.465 53.83C178.035 55.61 177.315 58.15 177.315 61.43C177.315 64.71 178.035 67.19 179.465 68.98C180.163 69.8548 181.057 70.5532 182.075 71.0187C183.093 71.4842 184.206 71.7039 185.325 71.66C188.818 71.66 191.095 70.1 192.155 66.98H201.455C200.645 70.4658 198.67 73.5706 195.855 75.78C192.84 78.0328 189.146 79.1867 185.385 79.05C182.325 79.1076 179.306 78.3518 176.635 76.86C174.088 75.4212 172.006 73.2837 170.635 70.7C169.216 67.8158 168.478 64.6444 168.478 61.43C168.478 58.2157 169.216 55.0442 170.635 52.16H170.655Z" fill="#2B4399"/>
</g>
<defs>
<clipPath id="clip0_4763_4567">
<rect width="201.475" height="92.1798" fill="white"/>
</clipPath>
</defs>
</svg>
